<svg xmlns="http://www.w3.org/2000/svg" width="20.925" height="15.939" viewBox="0 0 20.925 15.939">
						<defs>
							<style>
								.contact-footer .cls-1{fill:#c5c8d1}
							</style>
						</defs>
						<g id="email" transform="translate(0 -61)">
							<g id="Group_106" data-name="Group 106" transform="translate(0 61)">
								<path id="Path_72" d="M19.086 61H1.839A1.842 1.842 0 0 0 0 62.839V75.1a1.842 1.842 0 0 0 1.839 1.839h17.247a1.842 1.842 0 0 0 1.839-1.839V62.839A1.842 1.842 0 0 0 19.086 61zm-.254 1.226l-8.33 8.33-8.4-8.33zM1.226 74.846V63.087l5.9 5.854zm.867.867L8 69.8l2.07 2.053a.613.613 0 0 0 .865 0l2.019-2.019 5.876 5.876zm17.607-.867l-5.876-5.876 5.876-5.877z" class="cls-1" data-name="Path 72" transform="translate(0 -61)"></path>
							</g>
						</g>
					</svg>