<svg xmlns="http://www.w3.org/2000/svg" width="16.357" height="23.263" viewBox="0 0 16.357 23.263">
						<defs>
							<style>
							.contact-footer .cls-1{fill:#c5c8d1}
							</style>
						</defs>
						<g id="Group_6581" data-name="Group 6581" transform="translate(-808 -5125)">
							<g id="Group_100" data-name="Group 100" transform="translate(808 5125)">
								<g id="Group_99" data-name="Group 99">
									<path id="Path_70" d="M84.178 0a8.18 8.18 0 0 0-6.958 12.479l6.492 10.462a.682.682 0 0 0 .579.322h.009a.681.681 0 0 0 .579-.331L91.2 12.368A8.18 8.18 0 0 0 84.178 0zm5.855 11.669l-5.752 9.6-5.9-9.511a6.82 6.82 0 1 1 11.654-.092z" class="cls-1" data-name="Path 70" transform="translate(-76)"></path>
								</g>
							</g>
							<g id="Group_102" data-name="Group 102" transform="translate(812.089 5129.089)">
								<g id="Group_101" data-name="Group 101">
									<path id="Path_71" d="M170.089 90a4.089 4.089 0 1 0 4.089 4.089A4.094 4.094 0 0 0 170.089 90zm0 6.824a2.735 2.735 0 1 1 2.731-2.735 2.737 2.737 0 0 1-2.731 2.735z" class="cls-1" data-name="Path 71" transform="translate(-166 -90)"></path>
								</g>
							</g>
						</g>
					</svg>