<svg xmlns="http://www.w3.org/2000/svg" width="257.204" height="58.824" viewBox="0 0 222.645 50.92">
								<defs>
									<style>
										.logo-link .cls-1,.logo-link .cls-2,.logo-link .cls-3,.logo-link .cls-4,.logo-link .cls-5{fill:none}.logo-link .cls-1,.logo-link .cls-2,.logo-link .cls-3,.logo-link .cls-4,.logo-link .cls-5,.logo-link .cls-7{stroke:#fff;stroke-miterlimit:10}.logo-link .cls-1{stroke-width:.082px}.logo-link .cls-2{stroke-width:.164px}.logo-link .cls-3,.logo-link .cls-7{stroke-width:.079px}.logo-link .cls-4{stroke-width:.315px}.logo-link .cls-5{stroke-width:.158px}.logo-link .cls-6,.logo-link .cls-7{fill:#fff}.logo-link .cls-8{fill:#ec8709}
									</style>
								</defs>
								<g id="Group_6850" data-name="Group 6850" transform="translate(2745.96 3786)">
									<g id="Group_6813" data-name="Group 6813" transform="translate(-2721.234 -3780.153)">
										<path id="Path_7012" d="M2511 184.98c.123 1.577.217 3.154.325 4.731l.144 2.366.129 2.366c.042.789.1 1.577.158 2.366s.076 1.578.064 2.367-.04 1.581-.092 2.371-.125 1.582-.253 2.375h-.1c-.169-.785-.278-1.573-.372-2.361s-.16-1.575-.211-2.365-.067-1.578-.054-2.369.037-1.581.038-2.37l.01-2.37.026-2.37c.03-1.581.045-3.161.087-4.741z" class="cls-6" data-name="Path 7012" transform="translate(-2510.731 -184.98)"></path>
									</g>
									<g id="Group_6814" data-name="Group 6814" transform="translate(-2718.822 -3761.188)">
										<path id="Path_7013" d="M2528.46 325.132a11.042 11.042 0 0 1 2.057-.393c.343-.037.687-.064 1.031-.079a7.933 7.933 0 0 1 1.033.007c.69.052 1.381.2 2.07.219a10.73 10.73 0 0 0 2.061-.159c.343-.054.686-.113 1.03-.155s.687-.067 1.03-.094c.687-.054 1.374-.109 2.063-.107a23.44 23.44 0 0 1 3.102.221c.345.052.691.107 1.036.19v.1c-.342.1-.685.17-1.028.234s-.686.12-1.029.166q-1.03.139-2.061.186c-.687.031-1.377.005-2.065-.019-.344-.012-.688-.022-1.034-.05s-.69-.071-1.035-.11a10.62 10.62 0 0 0-2.066-.072c-.687.045-1.372.226-2.059.307a7.688 7.688 0 0 1-1.031.05q-.516 0-1.034-.035a11.036 11.036 0 0 1-2.072-.306z" class="cls-6" data-name="Path 7013" transform="translate(-2528.46 -324.37)"></path>
									</g>
									<g id="Group_6815" data-name="Group 6815" transform="translate(-2721.089 -3759.518)">
										<path id="Path_7014" d="M2512.4 336.65c.08 1.547.133 3.1.2 4.643l.083 2.322.068 2.322c.034 1.548.176 3.1.109 4.645-.041.774-.1 1.548-.188 2.321a22.906 22.906 0 0 1-.361 2.317h-.1a23.141 23.141 0 0 1-.283-2.325 39.177 39.177 0 0 1-.11-2.321c-.058-1.547.08-3.092.118-4.639l.071-2.32.085-2.32c.07-1.547.124-3.094.207-4.641z" class="cls-6" data-name="Path 7014" transform="translate(-2511.796 -336.65)"></path>
									</g>
									<g id="Group_6816" data-name="Group 6816" transform="translate(-2739.542 -3760.856)">
										<path id="Path_7015" d="M2376.172 327.345a11.9 11.9 0 0 1 2.143-.3q.535-.033 1.068-.035a8.23 8.23 0 0 1 1.067.05c.712.078 1.423.271 2.136.3a11.41 11.41 0 0 0 2.136-.17c.357-.056.712-.116 1.067-.159s.712-.071 1.067-.1c.712-.057 1.424-.116 2.135-.117s1.424.03 2.138.088c.357.03.714.065 1.072.117s.716.1 1.074.185v.1c-.354.1-.709.174-1.064.239s-.71.122-1.066.17q-1.068.143-2.137.2c-.713.035-1.427.012-2.141-.01-.357-.011-.714-.018-1.071-.045s-.714-.068-1.071-.1a11.381 11.381 0 0 0-2.14-.061c-.356.024-.713.052-1.069.1s-.714.1-1.071.122a8.53 8.53 0 0 1-1.071.007 17.493 17.493 0 0 1-1.07-.079 11.943 11.943 0 0 1-2.135-.395z" class="cls-6" data-name="Path 7015" transform="translate(-2376.169 -326.81)"></path>
									</g>
									<g id="Group_6817" data-name="Group 6817" transform="translate(-2740.035 -3779.872)">
										<path id="Path_7016" d="M2372.653 204.206a5.762 5.762 0 0 1-.086-1.656 10.151 10.151 0 0 1 .279-1.631 14.385 14.385 0 0 1 1.143-3.05c.12-.241.249-.478.374-.716l.38-.722c.267-.486.547-.955.842-1.412a25.185 25.185 0 0 1 1.966-2.622c.354-.418.738-.805 1.125-1.182.2-.189.382-.37.6-.562s.423-.367.643-.539a14.281 14.281 0 0 1 2.834-1.718c.252-.113.5-.222.761-.325s.514-.2.775-.284a15.387 15.387 0 0 1 1.586-.454 9.919 9.919 0 0 1 3.275-.238v.1a17.191 17.191 0 0 0-3.056.876 26.4 26.4 0 0 0-2.871 1.293c-.465.239-.922.492-1.374.752a16.933 16.933 0 0 0-1.946 1.282c-.203.156-.411.333-.618.5l-1.249 1a9.5 9.5 0 0 0-2.191 2.287 5.968 5.968 0 0 0-.665 1.431c-.081.246-.147.51-.222.773s-.147.522-.229.778c-.309 1.034-.742 2-1.1 2.992a17.734 17.734 0 0 0-.879 3.042z" class="cls-6" data-name="Path 7016" transform="translate(-2372.544 -187.042)"></path>
									</g>
									<g id="Group_6818" data-name="Group 6818" transform="translate(-2739.506 -3757.625)">
										<path id="Path_7017" d="M2393.6 367.056a5.767 5.767 0 0 1-1.655.086 10.12 10.12 0 0 1-1.632-.279 14.382 14.382 0 0 1-3.05-1.143c-.241-.12-.478-.249-.716-.374l-.722-.38q-.728-.4-1.412-.842a25.245 25.245 0 0 1-2.622-1.966 16.574 16.574 0 0 1-1.182-1.125c-.189-.2-.37-.382-.562-.6s-.367-.423-.539-.644a14.278 14.278 0 0 1-1.718-2.834c-.113-.252-.222-.5-.325-.761s-.2-.514-.284-.776a15.51 15.51 0 0 1-.454-1.586 9.915 9.915 0 0 1-.238-3.275h.1a17.238 17.238 0 0 0 .876 3.056 26.466 26.466 0 0 0 1.293 2.871c.239.465.492.922.752 1.374s.529.9.826 1.321c.147.214.3.422.456.625s.333.411.5.618l1 1.249a9.5 9.5 0 0 0 2.287 2.19 5.982 5.982 0 0 0 1.431.665c.246.08.51.147.773.222s.522.147.778.229c1.034.309 2 .741 2.992 1.1a17.776 17.776 0 0 0 3.042.879z" class="cls-6" data-name="Path 7017" transform="translate(-2376.432 -350.56)"></path>
									</g>
									<g id="Group_6819" data-name="Group 6819" transform="translate(-2718.534 -3779.977)">
										<path id="Path_7018" d="M2546.738 203.081a26.771 26.771 0 0 0-.74-3.143c-.158-.513-.3-1.029-.467-1.536-.079-.254-.171-.506-.253-.759s-.169-.5-.256-.754c-.176-.5-.373-.986-.574-1.46l-.153-.348-.162-.331a7.175 7.175 0 0 0-.37-.624 6.988 6.988 0 0 0-.431-.578 7.439 7.439 0 0 0-.478-.544 11.137 11.137 0 0 0-1.106-.99q-.6-.469-1.26-.936c-.22-.156-.439-.322-.663-.49l-.642-.492c-.194-.161-.407-.3-.611-.452s-.423-.287-.645-.418l-.331-.2c-.112-.065-.226-.125-.338-.188-.222-.133-.453-.252-.682-.375s-.466-.234-.7-.344l-.719-.317-.362-.158-.367-.144c-.244-.1-.5-.18-.744-.272a23.551 23.551 0 0 0-3.1-.854v-.1a16.061 16.061 0 0 1 3.231.41 18.583 18.583 0 0 1 3.094 1.026 15.71 15.71 0 0 1 2.847 1.592l.657.479.663.468c.443.312.888.623 1.314.966a9.076 9.076 0 0 1 2.188 2.424 8.75 8.75 0 0 1 .7 1.483c.188.512.354 1.03.5 1.551q.448 1.567.739 3.171a17.83 17.83 0 0 1 .322 3.241z" class="cls-6" data-name="Path 7018" transform="translate(-2530.581 -186.27)"></path>
									</g>
									<g id="Group_6820" data-name="Group 6820" transform="translate(-2718.845 -3758.668)">
										<path id="Path_7019" d="M2544.942 342.89a7.054 7.054 0 0 1 .3 3.42l-.027.216-.042.212-.087.426c-.061.283-.15.558-.23.837s-.192.544-.3.814-.242.522-.371.78a23.45 23.45 0 0 1-1.939 2.812l-1.018 1.35c-.344.446-.682.9-1.042 1.34-.09.11-.176.223-.27.332l-.281.322-.281.322-.3.306q-.3.31-.616.595c-.212.192-.423.385-.646.563a16.109 16.109 0 0 1-2.842 1.939c-.26.125-.519.254-.78.375s-.535.22-.8.324l-.822.273c-.279.078-.561.143-.839.214a9.481 9.481 0 0 1-3.422.156v-.1a18.1 18.1 0 0 0 6.144-2.208 27.927 27.927 0 0 0 2.765-1.739c.227-.154.438-.329.657-.492.109-.084.22-.163.326-.25s.214-.173.322-.258l.324-.256.318-.264.32-.264c.106-.089.207-.184.312-.275.2-.186.418-.366.608-.567s.4-.389.574-.6l.271-.317c.09-.106.179-.212.26-.325.165-.223.333-.445.483-.679a15.8 15.8 0 0 0 1.432-2.984c.092-.257.194-.509.295-.761s.193-.506.283-.762l.128-.385c.043-.128.092-.254.124-.386l.113-.389.057-.195.046-.2a12.681 12.681 0 0 0 .386-3.25z" class="cls-6" data-name="Path 7019" transform="translate(-2528.291 -342.89)"></path>
									</g>
									<g id="Group_6821" data-name="Group 6821" transform="translate(-2730.226 -3776.384)">
										<path id="Path_7020" d="M2448.438 212.68a3.941 3.941 0 1 0 3.8 3.939 3.869 3.869 0 0 0-3.8-3.939zm-2.372 3.871a.431.431 0 1 1 .431-.431.431.431 0 0 1-.431.431zm.757 1.831a.325.325 0 1 1 .325-.325.325.325 0 0 1-.325.325zm.325-3.661a.707.707 0 1 1 .707.707.708.708 0 0 1-.707-.707zm1.154 4.917a.471.471 0 1 1 .471-.471.471.471 0 0 1-.473.471zm-.131-2.092a.668.668 0 1 1 .627-.667.649.649 0 0 1-.627.666zm1.335-3.348a.314.314 0 1 1 .314.314.314.314 0 0 1-.315-.312zm.665 4.6a.43.43 0 1 1 .43-.43.43.43 0 0 1-.431.432zm.25-2.642a.471.471 0 1 1 .5-.471.484.484 0 0 1-.5.474z" class="cls-7" data-name="Path 7020" transform="translate(-2444.64 -212.68)"></path>
									</g>
									<g id="Group_6822" data-name="Group 6822" transform="translate(-2729.474 -3758.488)">
										<circle id="Ellipse_2697" cx="3.755" cy="3.755" r="3.755" class="cls-6" data-name="Ellipse 2697" transform="translate(.004 .003)"></circle>
										<path id="Path_7021" d="M2453.929 351.738a3.757 3.757 0 1 1 2.659-1.1 3.735 3.735 0 0 1-2.659 1.1zm0-7.51a3.748 3.748 0 1 0 2.652 1.1 3.729 3.729 0 0 0-2.652-1.1z" class="cls-6" data-name="Path 7021" transform="translate(-2450.17 -344.22)"></path>
									</g>
									<g id="Group_6823" data-name="Group 6823" transform="translate(-2736.314 -3768.384)">
										<ellipse id="Ellipse_2698" cx="2.302" cy="2.407" class="cls-6" data-name="Ellipse 2698" rx="2.302" ry="2.407" transform="translate(.005 .005)"></ellipse>
										<path id="Path_7022" d="M2402.2 276.3a2.415 2.415 0 1 1 2.307-2.412 2.364 2.364 0 0 1-2.307 2.412zm0-4.814a2.4 2.4 0 1 0 2.3 2.4 2.353 2.353 0 0 0-2.3-2.395z" class="cls-6" data-name="Path 7022" transform="translate(-2399.89 -271.48)"></path>
									</g>
									<g id="Group_6825" data-name="Group 6825" transform="translate(-2735.933 -3756.713)">
										<g id="Group_6824" data-name="Group 6824">
											<path id="Path_7023" d="M2403.855 359.693a1.217 1.217 0 1 1 1.166-1.216 1.193 1.193 0 0 1-1.166 1.216zm0-1.746a.532.532 0 1 0 .479.529.507.507 0 0 0-.479-.529z" class="cls-6" data-name="Path 7023" transform="translate(-2402.69 -357.26)"></path>
										</g>
									</g>
									<g id="Group_6826" data-name="Group 6826" transform="translate(-2725.541 -3746.927)">
										<circle id="Ellipse_2699" cx="1.563" cy="1.563" r="1.563" class="cls-6" data-name="Ellipse 2699" transform="translate(.005 .004)"></circle>
										<path id="Path_7024" d="M2480.649 432.325a1.567 1.567 0 1 1 1.569-1.567 1.571 1.571 0 0 1-1.569 1.567zm0-3.125a1.558 1.558 0 1 0 1.558 1.558 1.559 1.559 0 0 0-1.558-1.558z" class="cls-6" data-name="Path 7024" transform="translate(-2479.08 -429.19)"></path>
									</g>
									<g id="Group_6827" data-name="Group 6827" transform="translate(-2709.618 -3767.389)">
										<ellipse id="Ellipse_2700" cx="2.512" cy="2.563" class="cls-6" data-name="Ellipse 2700" rx="2.512" ry="2.563" transform="translate(.005 .004)"></ellipse>
										<path id="Path_7025" d="M2598.627 283.927a2.569 2.569 0 1 1 2.517-2.569 2.546 2.546 0 0 1-2.517 2.569zm0-5.128a2.558 2.558 0 1 0 2.506 2.558 2.535 2.535 0 0 0-2.506-2.557z" class="cls-6" data-name="Path 7025" transform="translate(-2596.11 -278.79)"></path>
									</g>
									<g id="Group_6828" data-name="Group 6828" transform="translate(-2710.659 -3758.177)">
										<path id="Path_7026" d="M2591.442 346.5a3.089 3.089 0 1 0 2.982 3.087 3.036 3.036 0 0 0-2.982-3.087zm-.811 1.1a.591.591 0 1 1-.55.589.571.571 0 0 1 .55-.589zm.132 3a.55.55 0 1 1 .55-.55.55.55 0 0 1-.55.55zm1.555.374a.353.353 0 1 1 .354-.354.354.354 0 0 1-.354.353zm.431-1.177a.591.591 0 1 1 .55-.589.571.571 0 0 1-.549.592z" class="cls-7" data-name="Path 7026" transform="translate(-2588.46 -346.5)"></path>
									</g>
									<g id="Group_6829" data-name="Group 6829" transform="translate(-2718.134 -3748.492)">
										<path id="Path_7027" d="M2536.024 422.7a2.5 2.5 0 1 1 2.5-2.5 2.508 2.508 0 0 1-2.5 2.5zm0-4.709a2.2 2.2 0 1 0 2.2 2.2 2.207 2.207 0 0 0-2.2-2.2z" class="cls-6" data-name="Path 7027" transform="translate(-2533.52 -417.69)"></path>
									</g>
									<g id="Group_6830" data-name="Group 6830" transform="translate(-2718.407 -3758.81)">
										<ellipse id="Ellipse_2701" cx="1.226" cy="1.307" class="cls-6" data-name="Ellipse 2701" rx="1.226" ry="1.307" transform="translate(.005 .007)"></ellipse>
										<path id="Path_7028" d="M2532.741 344.476a1.316 1.316 0 1 1 1.231-1.313 1.276 1.276 0 0 1-1.231 1.313zm0-2.614a1.3 1.3 0 1 0 1.22 1.3 1.264 1.264 0 0 0-1.22-1.3z" class="cls-6" data-name="Path 7028" transform="translate(-2531.51 -341.85)"></path>
									</g>
									<g id="Group_6831" data-name="Group 6831" transform="translate(-2718.094 -3777.332)">
										<circle id="Ellipse_2702" cx="2.146" cy="2.146" r="2.146" class="cls-6" data-name="Ellipse 2702" transform="translate(.005 .005)"></circle>
										<path id="Path_7029" d="M2535.961 210.012a2.151 2.151 0 1 1 2.151-2.151 2.153 2.153 0 0 1-2.151 2.151zm0-4.291a2.14 2.14 0 1 0 2.14 2.14 2.143 2.143 0 0 0-2.14-2.14z" class="cls-6" data-name="Path 7029" transform="translate(-2533.81 -205.71)"></path>
									</g>
									<g id="Group_6833" data-name="Group 6833" transform="translate(-2710.898 -3773.48)">
										<g id="Group_6832" data-name="Group 6832">
											<path id="Path_7030" d="M2587.768 236.325a1.156 1.156 0 1 1 1.068-1.152 1.114 1.114 0 0 1-1.068 1.152zm0-1.618a.475.475 0 1 0 .381.465.431.431 0 0 0-.381-.465z" class="cls-6" data-name="Path 7030" transform="translate(-2586.7 -234.02)"></path>
										</g>
									</g>
									<path id="Path_7033" d="M2457.612 282.676a2.864 2.864 0 0 0-1.984-.816 2.125 2.125 0 0 0-1.744.584 2.566 2.566 0 0 0-.7 1.034 2.468 2.468 0 0 0-.209 1.22 1.575 1.575 0 0 0 .637.946.753.753 0 0 0 .564.163.8.8 0 0 0 .57-.925.256.256 0 0 0-.1-.182.5.5 0 0 0-.369-.029c-.033.005-.306-.045-.331-.121-.008-.026.018-.053.079-.082.5-.23.834-.291 1.034-.2a.382.382 0 0 1 .2.269 2.657 2.657 0 0 1-.109.935 4.538 4.538 0 0 0-.146 1.029.415.415 0 0 0 .268.382 1.218 1.218 0 0 0 .489.083h.069a3.652 3.652 0 0 0 .588-.072c.084-.016.153-.033.195-.044a.357.357 0 0 0 .076-.022c.007-.044-.067-.555-.123-.9a12.1 12.1 0 0 0-.287-1.389c-.042-.137.038-.264.223-.347a1 1 0 0 1 .54-.069.619.619 0 0 1 .456.265c.091.15.12.25.081.3-.052.067-.218.015-.288-.008a.18.18 0 0 0-.03-.008.5.5 0 0 0-.369.029.263.263 0 0 0-.1.182.8.8 0 0 0 .57.925.752.752 0 0 0 .565-.163 1.571 1.571 0 0 0 .636-.946 2.454 2.454 0 0 0-.951-2.023z" class="cls-6" data-name="Path 7033" transform="translate(-5182.052 -4048.832)"></path>
									<path id="Path_7034" d="M2428.273 400.036a1.94 1.94 0 0 0-.667-.924 2.526 2.526 0 0 0-1.033-.533 3.627 3.627 0 0 0-2.144.063v.005-.005a2.128 2.128 0 0 0-1.356 1.244 2.541 2.541 0 0 0-.218 1.23 2.481 2.481 0 0 0 .305 1.2 1.574 1.574 0 0 0 .967.6.75.75 0 0 0 .582-.08.8.8 0 0 0 .145-1.077.255.255 0 0 0-.165-.125.505.505 0 0 0-.349.124c-.027.019-.3.083-.351.024-.018-.02-.005-.056.038-.106.363-.409.667-.624.885-.624h.038a.307.307 0 0 1 .235.185 4.167 4.167 0 0 1 .228.776 5.651 5.651 0 0 0 .341 1.122.417.417 0 0 0 .4.241 1.287 1.287 0 0 0 .538-.151 3.615 3.615 0 0 0 .509-.306c.07-.05.126-.093.16-.12a.435.435 0 0 0 .062-.05c-.012-.042-.287-.48-.479-.774a12.527 12.527 0 0 0-.828-1.151c-.1-.107-.072-.257.063-.408a1.013 1.013 0 0 1 .465-.283.615.615 0 0 1 .524.057c.145.1.211.181.2.238-.021.082-.194.1-.267.11h-.03a.509.509 0 0 0-.325.175.257.257 0 0 0-.016.207.8.8 0 0 0 .9.612.751.751 0 0 0 .449-.38 1.547 1.547 0 0 0 .194-1.116zm-.852 2.716z" class="cls-6" data-name="Path 7034" transform="translate(-5156.042 -4149.56)"></path>
									<path id="Path_7035" d="M2548.978 370.838a2.626 2.626 0 0 0-.325-1.114 3.536 3.536 0 0 0-1.53-1.5v.005-.005a2.132 2.132 0 0 0-1.836-.12 2.565 2.565 0 0 0-1.039.694 2.47 2.47 0 0 0-.656 1.05 1.58 1.58 0 0 0 .233 1.117.754.754 0 0 0 .461.365.8.8 0 0 0 .877-.642.259.259 0 0 0-.023-.205.509.509 0 0 0-.33-.166c-.037-.007-.245-.1-.252-.189 0-.037.03-.068.1-.094a.982.982 0 0 1 1 .094.407.407 0 0 1 .113.441 4.048 4.048 0 0 1-.4.7 5.628 5.628 0 0 0-.574 1.023.415.415 0 0 0 .1.454 1.287 1.287 0 0 0 .483.286 3.7 3.7 0 0 0 .572.156 5.365 5.365 0 0 0 .275.044c.009 0 0 0 0 0 .022-.038.148-.54.227-.882a12.221 12.221 0 0 0 .259-1.395c.012-.143.136-.23.339-.238h.029a1.018 1.018 0 0 1 .5.142.615.615 0 0 1 .321.418c.029.174.017.278-.036.307-.073.042-.207-.068-.264-.116a.213.213 0 0 0-.025-.019.505.505 0 0 0-.352-.113.258.258 0 0 0-.16.131.8.8 0 0 0 .178 1.072.754.754 0 0 0 .585.061 1.576 1.576 0 0 0 .947-.635 1.862 1.862 0 0 0 .203-1.127zm-2.75 2.384z" class="cls-6" data-name="Path 7035" transform="translate(-5260.332 -4123.206)"></path>
									<g id="Group_6836" data-name="Group 6836" transform="translate(-2718.068 -3769.558)">
										<path id="Path_7036" d="M2539.216 264.117c.3.974.738.592.739 1.256-3.057 0-5.531 1.824-5.531 4.08a.391.391 0 0 1-.384-.4c0-3.407 2.094-6.163 4.682-6.163.273 0 .494.548.494 1.227" class="cls-6" data-name="Path 7036" transform="translate(-2534.035 -262.885)"></path>
										<path id="Path_7037" d="M2534.394 269.423h-.005a.4.4 0 0 1-.389-.405 7.224 7.224 0 0 1 1.371-4.362 4.833 4.833 0 0 1 1.49-1.321 3.727 3.727 0 0 1 1.826-.484c.275 0 .5.552.5 1.231a1.223 1.223 0 0 0 .493.751.5.5 0 0 1 .246.5v.005h-.005a6.605 6.605 0 0 0-3.909 1.193 4.249 4.249 0 0 0-1.184 1.3 3.165 3.165 0 0 0-.434 1.586v.005zm4.294-6.562a3.7 3.7 0 0 0-1.821.483 4.847 4.847 0 0 0-1.487 1.318 7.212 7.212 0 0 0-1.37 4.355.388.388 0 0 0 .373.395 3.161 3.161 0 0 1 .436-1.586 4.235 4.235 0 0 1 1.186-1.3 6.621 6.621 0 0 1 3.91-1.2.487.487 0 0 0-.242-.491 1.233 1.233 0 0 1-.5-.756c.002-.671-.217-1.218-.485-1.218z" class="cls-6" data-name="Path 7037" transform="translate(-2534 -262.85)"></path>
									</g>
									<g id="Group_6837" data-name="Group 6837" transform="translate(-2712.801 -3769.408)">
										<path id="Path_7038" d="M2572.723 263.99" class="cls-6" data-name="Path 7038" transform="translate(-2572.72 -263.985)"></path>
										<path id="Rectangle_1217" d="M0 0h.003v.011H0z" class="cls-6" data-name="Rectangle 1217"></path>
									</g>
									<g id="Group_6838" data-name="Group 6838" transform="translate(-2712.801 -3769.408)">
										<path id="Path_7039" d="M2572.723 263.99" class="cls-6" data-name="Path 7039" transform="translate(-2572.72 -263.985)"></path>
										<path id="Rectangle_1218" d="M0 0h.003v.011H0z" class="cls-6" data-name="Rectangle 1218"></path>
									</g>
									<g id="Group_6839" data-name="Group 6839" transform="translate(-2711.996 -3768.4)">
										<path id="Path_7040" d="M2578.67 271.363" class="cls-6" data-name="Path 7040" transform="translate(-2578.665 -271.36)"></path>
										<path id="Rectangle_1219" d="M0 0h.011v.003H0z" class="cls-6" data-name="Rectangle 1219"></path>
									</g>
									<g id="Group_6840" data-name="Group 6840" transform="translate(-2711.996 -3768.4)">
										<path id="Path_7041" d="M2578.67 271.363" class="cls-6" data-name="Path 7041" transform="translate(-2578.665 -271.36)"></path>
										<path id="Rectangle_1220" d="M0 0h.011v.003H0z" class="cls-6" data-name="Rectangle 1220"></path>
									</g>
									<g id="Group_6841" data-name="Group 6841" transform="translate(-2712.798 -3769.408)">
										<path id="Path_7042" d="M2575.44 264.735l-.5.052-.72.148c-.3.014-.532.376-.514.808a.641.641 0 0 1-.657-.627c-.027-.626-.163-1.128-.3-1.128.4-.016.785.524.807 1 0-.2.871-.408 1.954-.459.041.041-.003.11-.07.206z" class="cls-6" data-name="Path 7042" transform="translate(-2572.74 -263.982)"></path>
										<path id="Path_7043" d="M2573.673 265.716a.615.615 0 0 1-.419-.165.665.665 0 0 1-.215-.468c-.026-.619-.16-1.122-.3-1.122v-.011h.018c.394 0 .755.52.792.971a3.486 3.486 0 0 1 1.951-.427c.053.041.009.113-.059.21l-.5.052-.72.147c-.3.014-.528.374-.51.8v.005h-.033zm-.9-1.755a1.858 1.858 0 0 1 .272 1.122.657.657 0 0 0 .212.46.607.607 0 0 0 .434.162c-.016-.433.217-.795.52-.809l.72-.147.5-.052c.066-.094.1-.158.062-.192-1.073.049-1.947.252-1.947.453h-.011a1.039 1.039 0 0 0-.757-.997z" class="cls-6" data-name="Path 7043" transform="translate(-2572.74 -263.95)"></path>
									</g>
									<g id="Group_6842" data-name="Group 6842" transform="translate(-2717.48 -3747.616)">
										<path id="Path_7044" d="M2540.085 427.8a1.834 1.834 0 1 1 1.764-1.833 1.8 1.8 0 0 1-1.764 1.833zm0-3.366a1.534 1.534 0 1 0 1.464 1.532 1.5 1.5 0 0 0-1.464-1.537z" class="cls-6" data-name="Path 7044" transform="translate(-2538.32 -424.13)"></path>
									</g>
									<g id="Group_6843" data-name="Group 6843" transform="translate(-2716.799 -3746.738)">
										<path id="Path_7045" d="M2544.5 432.92a1.17 1.17 0 1 1 1.17-1.17 1.172 1.172 0 0 1-1.17 1.17zm0-2.041a.87.87 0 1 0 .871.869.871.871 0 0 0-.871-.869z" class="cls-6" data-name="Path 7045" transform="translate(-2543.33 -430.58)"></path>
									</g>
									<g id="Group_6844" data-name="Group 6844" transform="translate(-2716.13 -3745.807)">
										<path id="Path_7046" d="M2548.75 438.421a.5.5 0 1 1 .5-.5.5.5 0 0 1-.5.5zm0-.7a.2.2 0 1 0 .2.2.2.2 0 0 0-.2-.202z" class="cls-6" data-name="Path 7046" transform="translate(-2548.25 -437.42)"></path>
									</g>
									<g id="Group_6849" data-name="Group 6849" transform="translate(-2745.96 -3786)">
										<g id="Group_6796" data-name="Group 6796" transform="translate(107.074 41.64)">
											<g id="Group_6783" data-name="Group 6783">
												<path id="Path_6980" d="M3120.473 448.445q0-.192-.216-.192v-.193h1.514v.193a.175.175 0 0 0-.177.192v4.855a.18.18 0 0 0 .054.144.176.176 0 0 0 .123.048v.193h-1.514v-.185q.216 0 .216-.192v-2.012h-3.166v2.004a.175.175 0 0 0 .178.192v.193H3116v-.185a.167.167 0 0 0 .186-.192v-4.858a.167.167 0 0 0-.186-.192v-.193h1.486v.193a.175.175 0 0 0-.178.192v1.819h3.166z" class="cls-8" data-name="Path 6980" transform="translate(-3116 -448.06)"></path>
											</g>
											<g id="Group_6784" data-name="Group 6784" transform="translate(7.098 .856)">
												<path id="Path_6981" d="M3170.786 454.35a3.39 3.39 0 0 1 1.017.15 2.4 2.4 0 0 1 .832.449 2.132 2.132 0 0 1 .561.754 2.844 2.844 0 0 1 0 2.131 2.107 2.107 0 0 1-.561.754 2.19 2.19 0 0 1-.832.434 3.726 3.726 0 0 1-1.017.133 3.778 3.778 0 0 1-1.018-.133 2.19 2.19 0 0 1-.832-.434 2.118 2.118 0 0 1-.56-.754 2.844 2.844 0 0 1 0-2.131 2.1 2.1 0 0 1 .56-.754 2.353 2.353 0 0 1 .832-.449 3.4 3.4 0 0 1 1.018-.15zm0 .792a1.745 1.745 0 0 0-.615.113 1.711 1.711 0 0 0-.536.321 1.655 1.655 0 0 0-.378 1.879 1.6 1.6 0 0 0 .378.509 1.71 1.71 0 0 0 .536.321 1.731 1.731 0 0 0 1.23 0 1.721 1.721 0 0 0 .536-.321 1.655 1.655 0 0 0 .378-1.879 1.6 1.6 0 0 0-.378-.509 1.723 1.723 0 0 0-.536-.321 1.74 1.74 0 0 0-.615-.113z" class="cls-8" data-name="Path 6981" transform="translate(-3168.169 -454.35)"></path>
											</g>
											<g id="Group_6785" data-name="Group 6785" transform="translate(13.472 .918)">
												<path id="Path_6982" d="M3216.446 454.811V455c-.151 0-.226.053-.226.161v3.563h2.654a.314.314 0 0 0 .2-.059.194.194 0 0 0 .079-.166h.177v1.124h-.177a.085.085 0 0 0-.079-.1 1.546 1.546 0 0 0-.2-.011h-3.854v-.193c.17 0 .256-.053.256-.161v-4c0-.107-.086-.161-.256-.161v-.193h1.426z" class="cls-8" data-name="Path 6982" transform="translate(-3215.02 -454.81)"></path>
											</g>
											<g id="Group_6786" data-name="Group 6786" transform="translate(18.753 .673)">
												<path id="Path_6983" d="M3256.513 454.048h-2.251a.243.243 0 0 0-.187.064.213.213 0 0 0-.058.15h-.177v-1.252h.177a.217.217 0 0 0 .246.246h3.915v.193l-2.745 3.724h2.35a.2.2 0 0 0 .226-.225h.176v1.124h-.176c0-.072-.077-.107-.226-.107h-3.943v-.193z" class="cls-8" data-name="Path 6983" transform="translate(-3253.84 -453.01)"></path>
											</g>
											<g id="Group_6787" data-name="Group 6787" transform="translate(24.042 .856)">
												<path id="Path_6984" d="M3295.326 454.35a3.4 3.4 0 0 1 1.018.15 2.394 2.394 0 0 1 .831.449 2.116 2.116 0 0 1 .561.754 2.844 2.844 0 0 1 0 2.131 2.091 2.091 0 0 1-.561.754 2.17 2.17 0 0 1-.831.434 3.732 3.732 0 0 1-1.018.133 3.785 3.785 0 0 1-1.018-.133 2.194 2.194 0 0 1-.832-.434 2.143 2.143 0 0 1-.561-.754 2.851 2.851 0 0 1 0-2.131 2.12 2.12 0 0 1 .561-.754 2.366 2.366 0 0 1 .832-.449 3.4 3.4 0 0 1 1.018-.15zm0 .792a1.742 1.742 0 0 0-.615.113 1.711 1.711 0 0 0-.536.321 1.543 1.543 0 0 0-.378.509 1.606 1.606 0 0 0 .378 1.879 1.71 1.71 0 0 0 .536.321 1.731 1.731 0 0 0 1.23 0 1.713 1.713 0 0 0 .536-.321 1.556 1.556 0 0 0 .378-.509 1.712 1.712 0 0 0 0-1.37 1.592 1.592 0 0 0-.378-.509 1.715 1.715 0 0 0-.536-.321 1.745 1.745 0 0 0-.615-.113z" class="cls-8" data-name="Path 6984" transform="translate(-3292.71 -454.35)"></path>
											</g>
											<g id="Group_6788" data-name="Group 6788" transform="translate(30.406 .729)">
												<path id="Path_6985" d="M3343.609 454.553a.132.132 0 0 0-.069-.1.423.423 0 0 0-.236-.048h-2.665v1.135h1.73a.355.355 0 0 0 .207-.037.2.2 0 0 0 .049-.124h.176v1.121h-.176a.23.23 0 0 0-.049-.128c-.026-.029-.1-.042-.207-.042h-1.73v1.637a.13.13 0 0 0 .069.124.327.327 0 0 0 .157.037v.193h-1.356v-.193c.124 0 .186-.053.186-.161v-4c0-.107-.069-.161-.207-.161v-.193h3.816a.389.389 0 0 0 .235-.053.165.165 0 0 0 .07-.139h.177v1.135h-.178z" class="cls-8" data-name="Path 6985" transform="translate(-3339.49 -453.42)"></path>
											</g>
											<g id="Group_6789" data-name="Group 6789" transform="translate(35.941 .727)">
												<path id="Path_6986" d="M3383.966 454.589c0-.135-.1-.2-.3-.2h-2.4v1.071h1.515a.827.827 0 0 0 .246-.027c.052-.018.079-.065.079-.144h.177v1.135h-.2c.019-.079-.007-.127-.079-.144a1.348 1.348 0 0 0-.305-.027h-1.435v1.263h2.517a.314.314 0 0 0 .2-.059.187.187 0 0 0 .079-.155h.177v1.124h-.177c0-.064-.026-.1-.079-.107a1.576 1.576 0 0 0-.2-.011h-3.609v-.193a.163.163 0 0 0 .1-.037.144.144 0 0 0 .049-.124v-4a.148.148 0 0 0-.049-.124.164.164 0 0 0-.1-.037v-.193h3.491c.2 0 .3-.064.3-.193h.177v1.188h-.177z" class="cls-8" data-name="Path 6986" transform="translate(-3380.17 -453.4)"></path>
											</g>
											<g id="Group_6790" data-name="Group 6790" transform="translate(41.398 .918)">
												<path id="Path_6987" d="M3420.282 459.328c.119 0 .177-.053.177-.161v-4c0-.107-.058-.16-.177-.16v-.193h1.445V455c-.046.007-.069.024-.069.053s.072.132.216.288l2.361 2.718v-2.9c0-.107-.066-.161-.2-.161v-.193h1.2V455c-.118 0-.176.053-.176.161v4c0 .107.058.161.176.161v.193h-1.278v-.193c.046 0 .069-.018.069-.053s-.031-.079-.094-.15-.134-.154-.211-.246l-2.439-2.826v3.114c0 .107.069.161.207.161v.193h-1.21v-.192z" class="cls-8" data-name="Path 6987" transform="translate(-3420.281 -454.81)"></path>
											</g>
											<g id="Group_6791" data-name="Group 6791" transform="translate(47.821 .92)">
												<path id="Path_6988" d="M3467.736 455.174c0-.107-.082-.161-.247-.161v-.193h2.861a1.923 1.923 0 0 1 1.194.31 1.293 1.293 0 0 1 .4 1.08 1.245 1.245 0 0 1-.4 1.065 2 2 0 0 1-1.194.294h-1.672v1.605c0 .107.069.161.207.161v.193h-1.4v-.193c.164 0 .247-.053.247-.161zm2.6 1.605a.932.932 0 0 0 .478-.113.484.484 0 0 0 .192-.454.527.527 0 0 0-.192-.465.819.819 0 0 0-.478-.133h-1.651v1.166z" class="cls-8" data-name="Path 6988" transform="translate(-3467.49 -454.82)"></path>
											</g>
											<g id="Group_6792" data-name="Group 6792" transform="translate(53.515 .92)">
												<path id="Path_6989" d="M3509.34 459.337a.445.445 0 0 0 .216-.037.133.133 0 0 0 .059-.124v-4a.136.136 0 0 0-.059-.124.445.445 0 0 0-.216-.037v-.193h1.5v.193c-.184 0-.274.053-.274.161v4c0 .107.092.161.274.161v.193h-1.5z" class="cls-8" data-name="Path 6989" transform="translate(-3509.34 -454.82)"></path>
											</g>
											<g id="Group_6793" data-name="Group 6793" transform="translate(56.466 .673)">
												<path id="Path_6990" d="M3533.7 454.048h-2.252a.245.245 0 0 0-.187.064.214.214 0 0 0-.059.15h-.176v-1.252h.176a.218.218 0 0 0 .247.246h3.914v.193l-2.744 3.724h2.351a.2.2 0 0 0 .226-.225h.177v1.124h-.177c0-.072-.075-.107-.226-.107h-3.944v-.193z" class="cls-8" data-name="Path 6990" transform="translate(-3531.03 -453.01)"></path>
											</g>
											<g id="Group_6794" data-name="Group 6794" transform="translate(61.934 .673)">
												<path id="Path_6991" d="M3573.893 454.048h-2.251a.245.245 0 0 0-.187.064.212.212 0 0 0-.059.15h-.177v-1.252h.177a.218.218 0 0 0 .247.246h3.914v.193l-2.744 3.724h2.351a.2.2 0 0 0 .226-.225h.177v1.124h-.177c0-.072-.075-.107-.226-.107h-3.944v-.193z" class="cls-8" data-name="Path 6991" transform="translate(-3571.22 -453.01)"></path>
											</g>
											<g id="Group_6795" data-name="Group 6795" transform="translate(66.987 .921)">
												<path id="Path_6992" d="M3608.36 459.346a.3.3 0 0 0 .192-.122 1.1 1.1 0 0 0 .113-.188l1.465-3.477c.04-.1.071-.18.092-.241a.484.484 0 0 0 .034-.177c0-.042-.008-.069-.024-.08l-.054-.037v-.193h1.486v.193a.286.286 0 0 1-.064.033q-.034.01-.034.086a.364.364 0 0 0 .045.155c.03.061.062.131.094.208l1.593 3.638a.372.372 0 0 0 .109.139.421.421 0 0 0 .127.064v.193h-1.4v-.161a.2.2 0 0 0 .1-.033.126.126 0 0 0 .054-.117.359.359 0 0 0-.019-.117 2.75 2.75 0 0 1-.049-.139l-.266-.609h-2.1l-.275.578a1.852 1.852 0 0 0-.064.155.38.38 0 0 0-.024.122c0 .057.017.093.049.107a.336.336 0 0 0 .137.022v.193h-1.317v-.2zm3.284-1.777l-.8-1.8-.7 1.8z" class="cls-8" data-name="Path 6992" transform="translate(-3608.36 -454.83)"></path>
											</g>
										</g>
										<g id="Group_6801" data-name="Group 6801" transform="translate(63.41 3.653)">
											<g id="Group_6797" data-name="Group 6797">
												<path id="Path_6993" d="M2829.891 202.566a1.473 1.473 0 0 0-.516-.2.319.319 0 0 0-.352.137 1.931 1.931 0 0 1-1.417.786 13.084 13.084 0 0 1-2.751.147q-1.6-.053-3.573-.271t-4.155-.5q-2.491-.327-5.126-.6t-5.134-.354l-.989-.033q-.5-.016-.99 0a44.634 44.634 0 0 1-.671-4.943 58.464 58.464 0 0 1-.147-7.126c.018-.514.04-1.034.069-1.559s.075-1.053.139-1.586a18.037 18.037 0 0 0 2.785-2.212 14.6 14.6 0 0 0 2.359-2.985 15.851 15.851 0 0 0 1.641-3.856 19.129 19.129 0 0 0 .664-4.826 3.12 3.12 0 0 0-.336-1.408 3.629 3.629 0 0 0-.868-1.1 4.316 4.316 0 0 0-1.245-.74 4.425 4.425 0 0 0-1.468-.3 4.78 4.78 0 0 0-1.66.257 5.016 5.016 0 0 0-1.575.856 6.145 6.145 0 0 0-1.268 2.071 31.479 31.479 0 0 0-1.287 3.692q-.629 2.167-1.169 4.827t-.876 5.477a32.066 32.066 0 0 1-4.2 1.884.823.823 0 0 0-.426.254.545.545 0 0 0-.149.322.331.331 0 0 0 .165.273.8.8 0 0 0 .518.106 14.852 14.852 0 0 0 3.844-.586q-.094.741-.12 1.5l-.049 1.472a43.652 43.652 0 0 0 .173 5.794 18.624 18.624 0 0 0 1.075 4.812 12.036 12.036 0 0 0-3.3 1.022 5.013 5.013 0 0 0-2.15 1.922c-.024.038.03.129.165.273a1.819 1.819 0 0 0 1.3.535 1.311 1.311 0 0 0 .847-.374 5.857 5.857 0 0 1 2.967-1.4 18.393 18.393 0 0 1 4.322-.318q2.223.074 4.922.431t5.26.77q2.455.378 4.827.71a42.076 42.076 0 0 0 4.385.4 11.7 11.7 0 0 0 4.259-.514 2.766 2.766 0 0 0 1.984-2.137.875.875 0 0 0-.23-.409 1.791 1.791 0 0 0-.473-.393zm-24.264-25.344q.58-2.794 1.4-5.653.426-1.324.877-1.31.312.01.522.509a4.353 4.353 0 0 1 .248 1.452 3.765 3.765 0 0 0 .035.492 6.3 6.3 0 0 1 .022.909 13.648 13.648 0 0 1-.2 1.765 12.527 12.527 0 0 1-.612 2.212 15.577 15.577 0 0 1-1.213 2.5 13.854 13.854 0 0 1-2.034 2.611q.377-2.694.955-5.487z" class="cls-6" data-name="Path 6993" transform="translate(-2795.18 -169.009)"></path>
												<path id="Path_6994" d="M2824.85 205.889c-.2 0-.408 0-.619-.011a41.954 41.954 0 0 1-4.388-.4 367.483 367.483 0 0 1-4.827-.71 192.887 192.887 0 0 0-5.259-.77 50.804 50.804 0 0 0-4.921-.431 18.421 18.421 0 0 0-4.317.318 5.884 5.884 0 0 0-2.957 1.4 1.34 1.34 0 0 1-.861.38 1.783 1.783 0 0 1-.765-.162 1.8 1.8 0 0 1-.551-.38c-.147-.158-.2-.25-.167-.3a5.059 5.059 0 0 1 2.158-1.931 12.056 12.056 0 0 1 3.283-1.019 18.721 18.721 0 0 1-1.067-4.793 43.7 43.7 0 0 1-.173-5.8l.049-1.472c.017-.5.056-.99.116-1.469a14.955 14.955 0 0 1-3.819.58.822.822 0 0 1-.531-.11.35.35 0 0 1-.173-.291.577.577 0 0 1 .155-.336.851.851 0 0 1 .437-.261 32.4 32.4 0 0 0 4.187-1.878c.223-1.864.517-3.7.876-5.468s.751-3.388 1.169-4.83a31.742 31.742 0 0 1 1.288-3.7 6.2 6.2 0 0 1 1.273-2.079 5.055 5.055 0 0 1 1.583-.86 4.832 4.832 0 0 1 1.668-.258 4.46 4.46 0 0 1 2.725 1.046 3.675 3.675 0 0 1 .874 1.106 3.174 3.174 0 0 1 .339 1.418 19.216 19.216 0 0 1-.665 4.831 15.827 15.827 0 0 1-1.642 3.861 14.739 14.739 0 0 1-2.362 2.989 18.251 18.251 0 0 1-2.78 2.209c-.062.525-.11 1.056-.139 1.576s-.052 1.033-.07 1.559a58.591 58.591 0 0 0 .147 7.124 45.115 45.115 0 0 0 .666 4.924c.318-.008.645-.007.974 0l.989.033c1.665.054 3.393.174 5.136.354s3.47.38 5.126.6c1.448.189 2.845.359 4.155.5s2.514.235 3.57.271a13.063 13.063 0 0 0 2.747-.147 1.926 1.926 0 0 0 1.4-.775.342.342 0 0 1 .374-.148 1.541 1.541 0 0 1 .523.2 1.922 1.922 0 0 1 .479.392.9.9 0 0 1 .235.42v.008a2.8 2.8 0 0 1-2 2.154 11.075 11.075 0 0 1-3.648.536zm-20.788-2.375c.256 0 .514 0 .778.014 1.476.049 3.133.195 4.925.431 1.811.239 3.581.5 5.26.77 1.639.253 3.263.491 4.826.71a42.188 42.188 0 0 0 4.382.4 11.756 11.756 0 0 0 4.25-.513 2.752 2.752 0 0 0 1.968-2.117.874.874 0 0 0-.224-.395 1.851 1.851 0 0 0-.468-.384 1.488 1.488 0 0 0-.508-.193.3.3 0 0 0-.331.128 1.961 1.961 0 0 1-1.431.8 13.15 13.15 0 0 1-2.756.147c-1.057-.035-2.26-.127-3.574-.271s-2.709-.316-4.156-.5c-1.656-.218-3.38-.419-5.125-.6s-3.468-.3-5.133-.354l-.989-.033a14.208 14.208 0 0 0-.99 0h-.018v-.018a44.929 44.929 0 0 1-.671-4.945 58.681 58.681 0 0 1-.147-7.129c.018-.527.041-1.05.069-1.559s.076-1.058.14-1.588v-.01l.008-.005a18.105 18.105 0 0 0 2.782-2.21 14.665 14.665 0 0 0 2.355-2.981 15.777 15.777 0 0 0 1.638-3.852 19.252 19.252 0 0 0 .664-4.82 3.128 3.128 0 0 0-.333-1.4 3.618 3.618 0 0 0-.863-1.093 4.331 4.331 0 0 0-1.238-.736 4.425 4.425 0 0 0-1.461-.3 4.772 4.772 0 0 0-1.653.256 5.013 5.013 0 0 0-1.569.852 6.142 6.142 0 0 0-1.261 2.063 31.663 31.663 0 0 0-1.285 3.69c-.418 1.439-.811 3.064-1.167 4.826s-.654 3.609-.876 5.475v.011l-.01.005a32.457 32.457 0 0 1-4.2 1.886.822.822 0 0 0-.416.248.529.529 0 0 0-.144.309.314.314 0 0 0 .156.256.782.782 0 0 0 .505.1 14.848 14.848 0 0 0 3.839-.586l.031-.008v.031c-.062.487-.1.992-.118 1.5l-.049 1.471a43.868 43.868 0 0 0 .173 5.792 18.637 18.637 0 0 0 1.073 4.807l.01.025h-.026a12.075 12.075 0 0 0-3.3 1.02 5.007 5.007 0 0 0-2.14 1.914c-.006.008-.019.054.162.248a1.8 1.8 0 0 0 1.284.527 1.3 1.3 0 0 0 .833-.369 5.919 5.919 0 0 1 2.977-1.41 18.066 18.066 0 0 1 3.542-.333zm.468-20.895l.008-.065a79.206 79.206 0 0 1 2.347-11.145c.287-.893.577-1.327.888-1.327h.011c.216.007.4.182.542.521a4.4 4.4 0 0 1 .249 1.46 3.791 3.791 0 0 0 .035.491 6.4 6.4 0 0 1 .022.912 13.793 13.793 0 0 1-.2 1.767 12.655 12.655 0 0 1-.614 2.216 15.709 15.709 0 0 1-1.215 2.507 14.029 14.029 0 0 1-2.037 2.615zm3.249-12.494c-.286 0-.572.435-.848 1.3-.548 1.9-1.021 3.8-1.4 5.65a77.44 77.44 0 0 0-.937 5.423 13.915 13.915 0 0 0 1.985-2.561 15.658 15.658 0 0 0 1.211-2.5 12.511 12.511 0 0 0 .611-2.208 13.678 13.678 0 0 0 .2-1.762 6.3 6.3 0 0 0-.022-.9 3.626 3.626 0 0 1-.035-.5 4.378 4.378 0 0 0-.246-1.442c-.136-.322-.3-.488-.5-.5z" class="cls-6" data-name="Path 6994" transform="translate(-2795.059 -168.853)"></path>
											</g>
											<g id="Group_6798" data-name="Group 6798" transform="translate(14.713 13.058)">
												<path id="Path_6995" d="M2925.722 271.486a2.123 2.123 0 0 0-.687-.231 2.689 2.689 0 0 0-.8-.026.607.607 0 0 0-.5.252l-.38.97q-.3.676-.734 1.7t-.942 2.171q-.508 1.145-1.049 2.287t-1.06 2.063a13.211 13.211 0 0 1-.971 1.516c-.3.4-.559.6-.767.615-.279.03-.47-.159-.573-.57a5.852 5.852 0 0 1-.123-1.566 19.533 19.533 0 0 1 .19-2.063q.16-1.141.34-2.385.216-1.3.379-2.562t.2-2.329a7.428 7.428 0 0 0-.086-1.609 1.035 1.035 0 0 0-.513-.805 2.143 2.143 0 0 0-.982-.256 3.435 3.435 0 0 0-.837.076 3.734 3.734 0 0 0-.755.242 2.673 2.673 0 0 0-.567.339.729.729 0 0 0-.272.333c-.024.019-.037.068-.04.147q-.079.3-.206.961t-.261 1.584q-.135.918-.241 2t-.143 2.212q-.3.5-.663 1.094a9.851 9.851 0 0 1-.783 1.1 4.949 4.949 0 0 1-.88.849 1.423 1.423 0 0 1-.88.328c-.139 0-.347-.022-.624-.05a1.363 1.363 0 0 1-.82-.458 3.3 3.3 0 0 1-.686-1.332 8.675 8.675 0 0 1-.224-2.671c0-.1.013-.248.032-.445s.029-.356.033-.475a16.84 16.84 0 0 1 .667-3.327 13.5 13.5 0 0 1 1.038-2.48 5.831 5.831 0 0 1 1.2-1.567 1.911 1.911 0 0 1 1.148-.558 1.66 1.66 0 0 1 1.29.43 3.56 3.56 0 0 1 .549.762.275.275 0 0 1 .064.151c0 .039.054.1.167.184a1.8 1.8 0 0 0 .646.423 2.211 2.211 0 0 0 .725.158 1.572 1.572 0 0 0 .963-.235q.374-.255.113-.77v.03l-.094-.3a3.5 3.5 0 0 0-.325-.7 2.648 2.648 0 0 0-.74-.769 4.63 4.63 0 0 0-1.387-.641 8.3 8.3 0 0 0-2.267-.283 7.985 7.985 0 0 0-3.044.539 7.163 7.163 0 0 0-2.219 1.4 7.631 7.631 0 0 0-1.49 1.929 13.125 13.125 0 0 0-.922 2.128 10.62 10.62 0 0 0-.465 1.993q-.116.933-.137 1.528c0 .595.049 1.306.137 2.132a6.014 6.014 0 0 0 .774 2.362 5.3 5.3 0 0 0 1.987 1.912 7.207 7.207 0 0 0 3.749.75 4.166 4.166 0 0 0 2.11-.718 5.454 5.454 0 0 0 1.366-1.369 9.03 9.03 0 0 0 .377 1.754 6.648 6.648 0 0 0 .664 1.465 4.049 4.049 0 0 0 .955 1.073 2.779 2.779 0 0 0 1.321.55 3.725 3.725 0 0 0 2.192-.567 8.15 8.15 0 0 0 1.951-1.691 14.213 14.213 0 0 0 1.644-2.4q.738-1.345 1.34-2.679t1.023-2.525q.42-1.192.657-1.988l.307-.823v.06c.077-.115.019-.223-.159-.329z" class="cls-6" data-name="Path 6995" transform="translate(-2903.313 -264.986)"></path>
												<path id="Path_6996" d="M2916.878 284.307c-.072 0-.144 0-.218-.007a2.81 2.81 0 0 1-1.332-.554 4.1 4.1 0 0 1-.961-1.079 6.678 6.678 0 0 1-.667-1.471 9.114 9.114 0 0 1-.37-1.7 5.5 5.5 0 0 1-1.34 1.327 4.2 4.2 0 0 1-2.121.722 7.285 7.285 0 0 1-3.76-.752 5.332 5.332 0 0 1-2-1.918 6.092 6.092 0 0 1-.777-2.37 21.612 21.612 0 0 1-.137-2.135c.012-.392.06-.907.137-1.531a10.853 10.853 0 0 1 .467-2 13.182 13.182 0 0 1 .924-2.131 7.657 7.657 0 0 1 1.494-1.936 7.243 7.243 0 0 1 2.226-1.4 8.047 8.047 0 0 1 3.052-.542 8.408 8.408 0 0 1 2.275.284 4.677 4.677 0 0 1 1.393.645 2.676 2.676 0 0 1 .746.775 3.576 3.576 0 0 1 .327.7l.068.216.026.052c.178.352.139.62-.119.8a1.6 1.6 0 0 1-.977.239 2.253 2.253 0 0 1-.732-.159 1.816 1.816 0 0 1-.654-.429c-.12-.087-.176-.151-.174-.2a.252.252 0 0 0-.06-.137 3.563 3.563 0 0 0-.547-.761 1.656 1.656 0 0 0-1.273-.423 1.9 1.9 0 0 0-1.135.552 5.859 5.859 0 0 0-1.195 1.562 13.542 13.542 0 0 0-1.037 2.476 16.935 16.935 0 0 0-.665 3.322c0 .116-.015.271-.032.475a8.37 8.37 0 0 0-.033.444 8.675 8.675 0 0 0 .223 2.664 3.314 3.314 0 0 0 .68 1.324 1.345 1.345 0 0 0 .805.452c.274.029.483.046.624.05a1.415 1.415 0 0 0 .866-.324 4.94 4.94 0 0 0 .876-.845 10.1 10.1 0 0 0 .782-1.1c.245-.4.467-.766.658-1.09.024-.752.073-1.5.143-2.208s.151-1.39.241-2 .177-1.141.261-1.585.154-.767.206-.962a.234.234 0 0 1 .041-.154.759.759 0 0 1 .278-.339 2.708 2.708 0 0 1 .571-.341 3.754 3.754 0 0 1 .761-.245 3.552 3.552 0 0 1 .842-.078 2.165 2.165 0 0 1 .991.259 1.055 1.055 0 0 1 .523.822 7.416 7.416 0 0 1 .086 1.614c-.023.709-.091 1.494-.2 2.332s-.237 1.7-.381 2.563a399.46 399.46 0 0 0-.34 2.384 19.655 19.655 0 0 0-.191 2.06 5.866 5.866 0 0 0 .121 1.561c.1.4.28.584.549.554.2-.012.456-.216.754-.607a13.461 13.461 0 0 0 .97-1.513c.342-.608.7-1.3 1.058-2.063a119.814 119.814 0 0 0 1.99-4.457c.289-.684.531-1.246.735-1.7l.38-.969a.629.629 0 0 1 .513-.265 2.733 2.733 0 0 1 .805.027 2.135 2.135 0 0 1 .7.234.378.378 0 0 1 .2.211.192.192 0 0 1-.03.152l-.042.067v-.007l-.26.7c-.155.524-.375 1.193-.657 1.986s-.626 1.643-1.023 2.528-.85 1.786-1.342 2.68a14.391 14.391 0 0 1-1.646 2.4 8.188 8.188 0 0 1-1.956 1.7 3.75 3.75 0 0 1-1.984.572zm-3.518-4.931l.007.057a9.049 9.049 0 0 0 .375 1.75 6.671 6.671 0 0 0 .663 1.461 4.08 4.08 0 0 0 .95 1.068 2.767 2.767 0 0 0 1.31.546 3.71 3.71 0 0 0 2.177-.565 8.159 8.159 0 0 0 1.946-1.687 14.368 14.368 0 0 0 1.642-2.4c.491-.892.941-1.793 1.34-2.677s.741-1.732 1.021-2.524.5-1.461.656-1.986l.331-.89a.348.348 0 0 0-.18-.182 2.111 2.111 0 0 0-.68-.229 2.689 2.689 0 0 0-.792-.026.588.588 0 0 0-.479.241l-.378.967c-.2.457-.45 1.029-.735 1.7s-.605 1.415-.942 2.171-.683 1.513-1.049 2.287-.717 1.456-1.06 2.064a13.356 13.356 0 0 1-.973 1.518c-.31.405-.566.61-.784.623-.29.033-.49-.166-.595-.586a5.857 5.857 0 0 1-.122-1.573 19.689 19.689 0 0 1 .19-2.064c.1-.737.218-1.54.34-2.385.143-.861.271-1.724.379-2.562s.176-1.619.2-2.328a7.378 7.378 0 0 0-.085-1.605 1.022 1.022 0 0 0-.5-.792 2.123 2.123 0 0 0-.973-.253 3.39 3.39 0 0 0-.832.076 3.773 3.773 0 0 0-.751.241 2.707 2.707 0 0 0-.563.336.707.707 0 0 0-.264.322v.007h-.005c-.011.008-.029.037-.032.132-.053.2-.119.512-.207.963s-.172.975-.261 1.582-.17 1.283-.24 2-.118 1.457-.143 2.211v.011c-.193.325-.416.694-.663 1.094a10.062 10.062 0 0 1-.786 1.107 5.01 5.01 0 0 1-.884.853 1.438 1.438 0 0 1-.894.332c-.14 0-.351-.022-.626-.05a1.388 1.388 0 0 1-.833-.465 3.356 3.356 0 0 1-.691-1.341 8.707 8.707 0 0 1-.226-2.678c0-.1.015-.259.032-.446s.03-.358.033-.473a16.99 16.99 0 0 1 .668-3.332 13.646 13.646 0 0 1 1.04-2.484 5.889 5.889 0 0 1 1.2-1.573 1.933 1.933 0 0 1 1.162-.562 1.689 1.689 0 0 1 1.306.437 3.611 3.611 0 0 1 .552.767.276.276 0 0 1 .067.161c0 .015.013.06.159.166a1.785 1.785 0 0 0 .642.42 2.164 2.164 0 0 0 .718.156 1.552 1.552 0 0 0 .951-.233.483.483 0 0 0 .143-.663v.067l-.132-.42a3.51 3.51 0 0 0-.323-.691 2.656 2.656 0 0 0-.733-.762 4.631 4.631 0 0 0-1.381-.638 8.369 8.369 0 0 0-2.263-.283 7.98 7.98 0 0 0-3.034.537 7.182 7.182 0 0 0-2.212 1.4 7.591 7.591 0 0 0-1.485 1.925 13.188 13.188 0 0 0-.921 2.124 10.853 10.853 0 0 0-.465 1.989 16.87 16.87 0 0 0-.138 1.527c0 .59.051 1.307.138 2.129a6.027 6.027 0 0 0 .771 2.354 5.29 5.29 0 0 0 1.98 1.9 7.211 7.211 0 0 0 3.736.746 4.172 4.172 0 0 0 2.1-.714 5.461 5.461 0 0 0 1.362-1.363z" class="cls-6" data-name="Path 6996" transform="translate(-2903.2 -264.83)"></path>
											</g>
											<g id="Group_6799" data-name="Group 6799" transform="translate(44.74 1.012)">
												<path id="Path_6997" d="M3214.264 193.832a3.087 3.087 0 0 0-.964-.284 2.6 2.6 0 0 0-1.151.11 8.236 8.236 0 0 0-2.426 1.318 11.4 11.4 0 0 0-1.942 1.944 16.6 16.6 0 0 0-1.52 2.316 19.968 19.968 0 0 0-1.124 2.433l-.144-2.981q-.051-.567-.065-1.148t-.032-1.1q-.019-.52-.022-.939v-.654a1.3 1.3 0 0 0-.357-1.248 1.7 1.7 0 0 0-1.115-.468 2.609 2.609 0 0 0-1.085.218 1.951 1.951 0 0 0-.894.729 2.138 2.138 0 0 0-.306.838c-.083.4-.158.887-.221 1.452s-.121 1.192-.168 1.884-.081 1.407-.106 2.139v.155l-.151.376q-.416 1.029-.889 2.143t-.995 2.229q-.524 1.114-1.005 2.02a13.1 13.1 0 0 1-.9 1.488 1.558 1.558 0 0 1-.734.66q-.451-.045-.645-.989a10.747 10.747 0 0 1-.144-2.46q.032-.982.14-2.139t.288-2.371q.179-1.214.359-2.458t.392-2.4q.259-1.51.439-2.769t.276-2.03a.947.947 0 0 0-.422-.921 2.337 2.337 0 0 0-1.137-.291 3.176 3.176 0 0 0-.819.078 4.7 4.7 0 0 0-.737.229 1.474 1.474 0 0 0-.534.354.675.675 0 0 0-.205.424v.06a.051.051 0 0 1-.019.044q-.019.014-.019.073-.078.237-.18.679t-.227 1.064q-.378.88-.988 1.992t-1.327 2.263q-.716 1.153-1.465 2.243t-1.422 1.977a17.539 17.539 0 0 1-1.194 1.434 2.258 2.258 0 0 1-.732.6q-.486-.045-.455-.967a8.484 8.484 0 0 1 .244-1.6q.223-.945.537-2.035.39-1.326.751-2.728a12.442 12.442 0 0 0 .4-2.65 5.25 5.25 0 0 0-.22-1.733 1.082 1.082 0 0 0-.772-.873 4.1 4.1 0 0 0-1.484-.332 3.176 3.176 0 0 0-1.5.263q-.6.292-.238.9h.069a3.547 3.547 0 0 1 .292 1.676 11.264 11.264 0 0 1-.3 2.118q-.265 1.167-.618 2.405-.322 1.329-.624 2.6a12.774 12.774 0 0 0-.311 1.887 20.177 20.177 0 0 1-1.028 1.775q-.6.918-1.093.961c-.139.015-.257-.1-.354-.354a4.579 4.579 0 0 1-.226-1.049 14.115 14.115 0 0 1-.086-1.624q0-.953.034-2.082.073-2.231.348-4.914t.547-5.324l.395-4.57 1.742-.091q3.063-.106 5.883-.207t4.9-.031q.729.024 1.388.091c.438.045.831.093 1.177.143a1.641 1.641 0 0 0 .94-.044.772.772 0 0 0 .448-.386.546.546 0 0 0-.053-.493 1.072 1.072 0 0 0-.56-.42 10.027 10.027 0 0 0-2.251-.253q-.833-.029-1.928-.034t-2.348.026q-1.253.033-2.628.061t-2.766.072q-.939.029-1.879.042t-1.914.041c.036-.376.059-.732.071-1.069s.021-.654.031-.951a12.837 12.837 0 0 0-.041-1.936 1.152 1.152 0 0 0-.5-.82 1.808 1.808 0 0 0-.867-.237 2.44 2.44 0 0 0-.7.08 2.561 2.561 0 0 0-.622.248 2.317 2.317 0 0 0-.449.328.5.5 0 0 0-.186.321c0-.019-.012.015-.038.1s-.053.2-.082.34l-.681 3.638q-2.613 0-4.768-.068-1.321-.043-2.343-.122a9.855 9.855 0 0 1-1.678-.249 3.888 3.888 0 0 0-1.684-.056c-.363.107-.548.279-.556.517-.007.219.147.446.463.686a3.37 3.37 0 0 0 1.373.536h-.069a8.4 8.4 0 0 0 1.556.23q.9.059 2.014.1 2.43.08 5.43 0-.357 2.339-.714 5.155t-.445 5.521a37.982 37.982 0 0 0 .046 3.608q-.214.406-.437.842-.7 1.316-1.483 2.778t-1.464 2.72q-.686 1.257-1.165 2.1a5.7 5.7 0 0 1-.588.933.591.591 0 0 1-.557-.509 4.624 4.624 0 0 1-.111-1.358 18.261 18.261 0 0 1 .313-2.623q.275-1.524.682-3.237.414-2.039.815-4.155a25.919 25.919 0 0 0 .461-3.928 10.734 10.734 0 0 0-.107-2.012 4.638 4.638 0 0 0-.521-1.58 2.884 2.884 0 0 0-1.025-1.061 3.348 3.348 0 0 0-3.928.48 12.013 12.013 0 0 0-2.13 2.4 23.973 23.973 0 0 0-1.845 3.2q-.839 1.743-1.447 3.3l.293-3.622a.941.941 0 0 1 .044-.267.7.7 0 0 0 .041-.177.629.629 0 0 0-.462-.744 3.905 3.905 0 0 0-1.279-.235 6.047 6.047 0 0 0-1.08.053 3.444 3.444 0 0 0-.789.2.646.646 0 0 0-.356.256c-.038.088.036.155.219.2a7.353 7.353 0 0 0-.388 1.208q-.2.8-.375 1.848-.125.759-.226 1.588-.428 1.08-.909 2.244-.491 1.19-1 2.393t-1.011 2.154a12.477 12.477 0 0 1-.937 1.547q-.437.6-.751.645c-.371.027-.6-.264-.7-.871a12.75 12.75 0 0 1-.1-2.34q.031-.92.117-1.975t.193-2.181q.141-1.126.249-2.254t.141-2.109q.018-.565.018-1.056a4.455 4.455 0 0 0-.091-.91 1.25 1.25 0 0 0-.614-.883 2.289 2.289 0 0 0-1.085-.3 3.12 3.12 0 0 0-1.471.294c-.448.214-.676.468-.686.766-.025.019-.037.068-.04.147q-.042.265-.187.946t-.3 1.642q-.153.963-.279 2.118c-.02.192-.039.384-.057.577a36.92 36.92 0 0 1-.424.837 27.427 27.427 0 0 1-1.673 2.758 15.755 15.755 0 0 1-2.188 2.562 11.05 11.05 0 0 1-2.722 1.888 7.4 7.4 0 0 1-3.31.739 4.568 4.568 0 0 1-.765-.026 5.81 5.81 0 0 1-1.363-.313 6.1 6.1 0 0 1-1.622-.887 5.856 5.856 0 0 1-1.524-1.747 10.048 10.048 0 0 1-1.087-2.894 16.988 16.988 0 0 1-.326-4.326 23.652 23.652 0 0 1 .131-1.841q.045-.327.146-1.275t.318-2.282q.219-1.333.566-2.928t.821-3.231a29.418 29.418 0 0 1 1.114-3.177 14.235 14.235 0 0 1 1.482-2.733 8.506 8.506 0 0 1 1.855-1.948 3.975 3.975 0 0 1 2.27-.8l.642.022a3.865 3.865 0 0 1 .951.166 4.5 4.5 0 0 1 1.063.482 3.527 3.527 0 0 1 .995.94 4.825 4.825 0 0 1 .714 1.526 7.321 7.321 0 0 1 .22 2.254 2.511 2.511 0 0 1-.046.37 2.6 2.6 0 0 0-.047.4 13.156 13.156 0 0 1-1.216 4.722 2.56 2.56 0 0 1-2.157 1.6 5.269 5.269 0 0 1-2.642-1.039q-.916-.655-1.3-.565a.482.482 0 0 0-.4.507 1.105 1.105 0 0 0 .124.465 2.619 2.619 0 0 0 .263.469 5.017 5.017 0 0 0 1.842 1.043 8.075 8.075 0 0 0 1.969.422 7.363 7.363 0 0 0 1.024.019 6.217 6.217 0 0 0 1.417-.235 6.6 6.6 0 0 0 1.57-.678 5.555 5.555 0 0 0 1.486-1.3 8.065 8.065 0 0 0 1.2-2.133 11.4 11.4 0 0 0 .679-3.162c.008-.257 0-.624-.016-1.1a5.976 5.976 0 0 0-.28-1.527 7.173 7.173 0 0 0-.8-1.679 6 6 0 0 0-1.5-1.582 8.282 8.282 0 0 0-2.395-1.2 12.479 12.479 0 0 0-3.494-.547 10.307 10.307 0 0 0-4.212.664 10.643 10.643 0 0 0-3.248 2.02 13.253 13.253 0 0 0-2.411 2.956 23.148 23.148 0 0 0-1.714 3.456 26.772 26.772 0 0 0-1.125 3.52q-.423 1.743-.644 3.163t-.3 2.371a33.437 33.437 0 0 0-.091 1.158 20.443 20.443 0 0 0 .565 6.061 13.081 13.081 0 0 0 1.812 4.063 8.991 8.991 0 0 0 2.525 2.479 11.178 11.178 0 0 0 2.739 1.282 10.808 10.808 0 0 0 2.418.467q1.076.065 1.563.052a12.781 12.781 0 0 0 4.947-1.354 15.016 15.016 0 0 0 3.669-2.676 17.868 17.868 0 0 0 1.939-2.3c0 .034.006.068.011.1a8.959 8.959 0 0 0 .632 2.446 5.329 5.329 0 0 0 1.26 1.842 3.517 3.517 0 0 0 2 .9 4.218 4.218 0 0 0 2.528-.735 9.731 9.731 0 0 0 2.17-2.012q.412-.51.79-1.075l.023.163a5.058 5.058 0 0 0 .34 1.261 1.214 1.214 0 0 0 .6.675 3.828 3.828 0 0 0 .723.233 3.88 3.88 0 0 0 .659.082 2.2 2.2 0 0 0 1.722-.552 1.14 1.14 0 0 0 .219-1.377.962.962 0 0 1-.094-.331 8.459 8.459 0 0 1-.053-.508 21.122 21.122 0 0 1 .762-2.52q.516-1.426 1.174-2.922t1.383-2.946q.727-1.449 1.424-2.571a14.1 14.1 0 0 1 1.277-1.788q.577-.665.925-.624.31.041.437.461a3.662 3.662 0 0 1 .1 1.135 14.315 14.315 0 0 1-.3 2.267q-.271 1.345-.6 2.822-.374 1.8-.766 3.71a21.2 21.2 0 0 0-.449 3.571 9.915 9.915 0 0 0 .11 1.924 5.087 5.087 0 0 0 .5 1.565 3.121 3.121 0 0 0 .987 1.12 3.482 3.482 0 0 0 1.563.558 4.858 4.858 0 0 0 2.282-.132 4.231 4.231 0 0 0 1.763-1.282 13.842 13.842 0 0 0 1.7-2.607q.566-1.071 1.283-2.51a5.665 5.665 0 0 0 1.034 1.829 2.67 2.67 0 0 0 1.933.927 4.352 4.352 0 0 0 2.169-.4 6.153 6.153 0 0 0 1.319-.853 3.307 3.307 0 0 0 .26.4 3.5 3.5 0 0 0 2.709 1.132 3.6 3.6 0 0 0 1.882-.652 9.818 9.818 0 0 0 1.826-1.592 18.029 18.029 0 0 0 1.671-2.147q.786-1.18 1.415-2.29-.155 1.512-.2 3.029a23.31 23.31 0 0 0 .078 2.92 10.053 10.053 0 0 0 .509 2.472 4.53 4.53 0 0 0 1.072 1.747 2.781 2.781 0 0 0 1.764.773 3.7 3.7 0 0 0 2.279-.55 7.544 7.544 0 0 0 1.954-1.766 14.94 14.94 0 0 0 1.614-2.536c.036-.069.071-.139.1-.21.005.057.011.113.018.169a4.6 4.6 0 0 0 .208 1.079 1.9 1.9 0 0 0 .768.978 2.284 2.284 0 0 0 1.136.336 2.473 2.473 0 0 0 1.155-.23 1.824 1.824 0 0 0 .826-.777 1.924 1.924 0 0 0 .233-.751 10.746 10.746 0 0 0 .113-1.321v-.118q.306-.884.777-1.954t1.081-2.167a19.033 19.033 0 0 1 1.392-2.141 11.756 11.756 0 0 1 1.749-1.876c-.056.256-.1.507-.129.755s-.052.509-.062.786a5.969 5.969 0 0 0 .422 2.5 2.385 2.385 0 0 0 1.464 1.463 4.02 4.02 0 0 0 1.676.309.54.54 0 0 0 .489-.565 1.363 1.363 0 0 0-.074-.4 6.21 6.21 0 0 1-.139-.525l-.249-.872a3.342 3.342 0 0 1 .021-1.146 14.3 14.3 0 0 1 .309-1.448q.2-.753.449-1.488t.476-1.264c.078-.215.147-.407.21-.573a1.315 1.315 0 0 0 .1-.369.809.809 0 0 0-.244-.529 1.957 1.957 0 0 0-.632-.53z" class="cls-6" data-name="Path 6997" transform="translate(-3124.038 -176.494)"></path>
												<path id="Path_6998" d="M3194.976 211.37c-.1 0-.211 0-.316-.014a2.818 2.818 0 0 1-1.779-.778 4.584 4.584 0 0 1-1.077-1.755 10.1 10.1 0 0 1-.511-2.478 24.012 24.012 0 0 1-.077-2.922c.033-.971.1-1.956.194-2.929-.4.709-.862 1.449-1.365 2.2a18.015 18.015 0 0 1-1.672 2.15 9.956 9.956 0 0 1-1.83 1.595 3.628 3.628 0 0 1-1.893.656 3.542 3.542 0 0 1-2.727-1.14 3.215 3.215 0 0 1-.249-.38 6.139 6.139 0 0 1-1.3.839 4.407 4.407 0 0 1-2.179.407 2.708 2.708 0 0 1-1.949-.935 5.687 5.687 0 0 1-1.022-1.788c-.465.932-.889 1.762-1.261 2.467a13.953 13.953 0 0 1-1.707 2.611 4.28 4.28 0 0 1-1.772 1.287 4.879 4.879 0 0 1-2.291.133 3.523 3.523 0 0 1-1.573-.561 3.144 3.144 0 0 1-.995-1.127 5.125 5.125 0 0 1-.507-1.57 9.9 9.9 0 0 1-.11-1.928 21.358 21.358 0 0 1 .449-3.575l.749-3.623.018-.087c.215-.973.417-1.922.6-2.822a14.267 14.267 0 0 0 .3-2.264 3.691 3.691 0 0 0-.1-1.128c-.08-.271-.222-.42-.419-.446-.219-.026-.527.181-.906.618a14.264 14.264 0 0 0-1.273 1.785c-.461.743-.94 1.607-1.423 2.57s-.951 1.959-1.383 2.944-.832 1.975-1.174 2.921a20.892 20.892 0 0 0-.759 2.514c.016.192.033.361.051.5a.969.969 0 0 0 .091.322 1.163 1.163 0 0 1-.223 1.4 2.221 2.221 0 0 1-1.737.559 3.82 3.82 0 0 1-1.389-.314 1.236 1.236 0 0 1-.615-.686 5.105 5.105 0 0 1-.343-1.267l-.016-.109c-.246.365-.5.712-.758 1.03a9.819 9.819 0 0 1-2.176 2.016 4.258 4.258 0 0 1-2.395.74h-.146a3.544 3.544 0 0 1-2.018-.906 5.369 5.369 0 0 1-1.266-1.849 9.124 9.124 0 0 1-.634-2.452c0-.015 0-.031-.005-.046a18.026 18.026 0 0 1-1.909 2.256 15.117 15.117 0 0 1-3.675 2.68 12.837 12.837 0 0 1-4.955 1.356c-.325.008-.852-.008-1.566-.052a10.9 10.9 0 0 1-2.423-.468 11.234 11.234 0 0 1-2.745-1.284 9.07 9.07 0 0 1-2.532-2.486 13.169 13.169 0 0 1-1.816-4.069 20.546 20.546 0 0 1-.565-6.067c0-.14.035-.531.091-1.159s.158-1.429.3-2.373.362-2 .644-3.165a26.857 26.857 0 0 1 1.126-3.522 23.246 23.246 0 0 1 1.715-3.458 13.329 13.329 0 0 1 2.414-2.96 10.716 10.716 0 0 1 3.255-2.024 10.343 10.343 0 0 1 4.22-.665 12.585 12.585 0 0 1 3.5.548 8.345 8.345 0 0 1 2.4 1.2 6.087 6.087 0 0 1 1.5 1.588 7.2 7.2 0 0 1 .8 1.683 6.024 6.024 0 0 1 .28 1.533c.019.475.024.846.016 1.1a11.386 11.386 0 0 1-.68 3.169 8.049 8.049 0 0 1-1.2 2.139 5.563 5.563 0 0 1-1.492 1.31 6.679 6.679 0 0 1-1.574.679 6.3 6.3 0 0 1-1.42.237 7.428 7.428 0 0 1-1.028-.019 8.118 8.118 0 0 1-1.973-.423 5.053 5.053 0 0 1-1.85-1.048 2.659 2.659 0 0 1-.268-.478 1.135 1.135 0 0 1-.125-.475.506.506 0 0 1 .417-.528c.265-.064.7.122 1.319.567a5.258 5.258 0 0 0 2.631 1.035 2.548 2.548 0 0 0 2.137-1.584 13.163 13.163 0 0 0 1.214-4.714 2.464 2.464 0 0 1 .049-.4 2.3 2.3 0 0 0 .046-.367 7.374 7.374 0 0 0-.221-2.248 4.828 4.828 0 0 0-.711-1.52 3.5 3.5 0 0 0-.989-.935 4.455 4.455 0 0 0-1.057-.479 3.889 3.889 0 0 0-.946-.165l-.642-.022a3.978 3.978 0 0 0-2.256.8 8.5 8.5 0 0 0-1.85 1.943 14.287 14.287 0 0 0-1.479 2.729 29.4 29.4 0 0 0-1.113 3.175c-.314 1.091-.59 2.178-.819 3.23s-.422 2.044-.566 2.926-.251 1.648-.318 2.28-.117 1.057-.147 1.276c-.033.272-.06.581-.083.918-.021.32-.038.63-.047.92a17.009 17.009 0 0 0 .325 4.321 10.033 10.033 0 0 0 1.084 2.887 5.886 5.886 0 0 0 1.518 1.74 6.162 6.162 0 0 0 1.617.884 5.836 5.836 0 0 0 1.358.312 4.658 4.658 0 0 0 .759.026 7.424 7.424 0 0 0 3.3-.737 11.123 11.123 0 0 0 2.717-1.886 15.776 15.776 0 0 0 2.185-2.558 27.413 27.413 0 0 0 1.672-2.755c.143-.273.286-.554.423-.833.018-.19.035-.384.056-.573.083-.769.177-1.482.279-2.12s.2-1.19.3-1.643.159-.77.188-.946a.242.242 0 0 1 .04-.154c.015-.3.249-.562.7-.775a3.165 3.165 0 0 1 1.48-.3 2.335 2.335 0 0 1 1.1.306 1.273 1.273 0 0 1 .624.9 4.482 4.482 0 0 1 .093.916 33.734 33.734 0 0 1-.158 3.167 80.043 80.043 0 0 1-.249 2.254c-.068.721-.133 1.456-.193 2.18-.057.7-.1 1.361-.117 1.974a12.834 12.834 0 0 0 .1 2.336c.089.567.3.854.635.854h.043c.2-.033.449-.246.736-.637a12.353 12.353 0 0 0 .936-1.544c.332-.63.672-1.354 1.01-2.152s.677-1.611 1-2.392.622-1.52.907-2.241c.066-.55.143-1.083.226-1.585.116-.7.243-1.32.375-1.849a7.878 7.878 0 0 1 .378-1.188.315.315 0 0 1-.209-.124.114.114 0 0 1 0-.1.649.649 0 0 1 .367-.268 3.483 3.483 0 0 1 .794-.2 6.076 6.076 0 0 1 1.083-.054 4 4 0 0 1 1.286.237.653.653 0 0 1 .477.769.767.767 0 0 1-.041.181.912.912 0 0 0-.042.261l-.282 3.477c.391-.99.86-2.054 1.4-3.166a24 24 0 0 1 1.846-3.2 12.133 12.133 0 0 1 2.135-2.4 3.371 3.371 0 0 1 3.953-.482 2.925 2.925 0 0 1 1.032 1.068 4.7 4.7 0 0 1 .524 1.588 10.763 10.763 0 0 1 .107 2.016 25.822 25.822 0 0 1-.461 3.932c-.266 1.4-.54 2.8-.816 4.155a58.91 58.91 0 0 0-.68 3.237 18.489 18.489 0 0 0-.313 2.62 4.633 4.633 0 0 0 .11 1.351c.092.32.264.482.53.494a6.429 6.429 0 0 0 .576-.921c.328-.578.719-1.286 1.164-2.1.458-.841.951-1.756 1.462-2.72s1.014-1.9 1.483-2.778c.146-.287.291-.569.434-.837a38.014 38.014 0 0 1-.046-3.605c.06-1.79.209-3.648.445-5.524.235-1.856.474-3.581.71-5.131-1.979.052-3.8.052-5.405 0a51.854 51.854 0 0 1-2.014-.1 8.423 8.423 0 0 1-1.56-.231l-.185-.049h.027a3.129 3.129 0 0 1-1.152-.49c-.321-.242-.48-.479-.472-.7.008-.246.2-.427.571-.537a3.938 3.938 0 0 1 1.695.056 9.932 9.932 0 0 0 1.676.249 53.46 53.46 0 0 0 2.342.122c1.422.048 3.019.071 4.749.068l.678-3.62c.027-.137.056-.253.082-.341a.622.622 0 0 1 .038-.113.54.54 0 0 1 .192-.321 2.38 2.38 0 0 1 .453-.331 2.531 2.531 0 0 1 .627-.249 2.445 2.445 0 0 1 .709-.082 1.845 1.845 0 0 1 .877.239 1.172 1.172 0 0 1 .507.834 13.01 13.01 0 0 1 .041 1.941l-.031.951c-.011.324-.034.675-.068 1.046a132.5 132.5 0 0 1 1.89-.039c.646-.01 1.277-.023 1.878-.042.912-.029 1.844-.053 2.768-.072.873-.018 1.757-.039 2.627-.061a74.269 74.269 0 0 1 4.278.008 10.106 10.106 0 0 1 2.257.254 1.086 1.086 0 0 1 .573.43.565.565 0 0 1 .054.512.8.8 0 0 1-.458.4 1.682 1.682 0 0 1-.952.045c-.346-.052-.742-.1-1.175-.143s-.9-.075-1.387-.091c-1.381-.046-3.03-.035-4.9.031l-5.882.207-1.723.09-.393 4.552q-.273 2.641-.546 5.325a72.688 72.688 0 0 0-.349 4.913 55.476 55.476 0 0 0-.034 2.082 13.766 13.766 0 0 0 .085 1.622 4.65 4.65 0 0 0 .225 1.045c.091.239.206.355.331.34.317-.027.68-.348 1.077-.951a20.06 20.06 0 0 0 1.026-1.769 12.677 12.677 0 0 1 .311-1.886c.194-.819.405-1.692.624-2.6.234-.819.442-1.627.618-2.405a11.351 11.351 0 0 0 .295-2.114 3.548 3.548 0 0 0-.284-1.654h-.068l-.005-.01a.7.7 0 0 1-.12-.558.642.642 0 0 1 .367-.371 3.228 3.228 0 0 1 1.515-.265 4.15 4.15 0 0 1 1.492.333 1.108 1.108 0 0 1 .784.891 5.292 5.292 0 0 1 .221 1.736 12.374 12.374 0 0 1-.4 2.654 79.64 79.64 0 0 1-.75 2.729 43.074 43.074 0 0 0-.537 2.035 8.474 8.474 0 0 0-.243 1.595c-.019.6.125.914.431.946a2.288 2.288 0 0 0 .719-.595 17.727 17.727 0 0 0 1.193-1.431c.446-.589.925-1.253 1.42-1.975a55.01 55.01 0 0 0 2.79-4.503c.405-.737.736-1.405.987-1.989.084-.422.159-.77.226-1.06s.126-.52.178-.678a.114.114 0 0 1 .027-.087s.009-.008.011-.029v-.06a.692.692 0 0 1 .211-.438 1.481 1.481 0 0 1 .54-.359 4.749 4.749 0 0 1 .742-.23 3.222 3.222 0 0 1 .824-.078 2.356 2.356 0 0 1 1.148.294.974.974 0 0 1 .432.941 110 110 0 0 1-.715 4.802c-.141.765-.272 1.57-.392 2.4s-.241 1.649-.359 2.458-.215 1.6-.287 2.37-.118 1.482-.14 2.137a10.875 10.875 0 0 0 .145 2.456c.126.614.336.94.623.971a1.585 1.585 0 0 0 .718-.65 13.15 13.15 0 0 0 .9-1.486c.317-.6.656-1.276 1.006-2.019s.68-1.483.994-2.229.608-1.454.889-2.143l.149-.371v-.152c.023-.72.06-1.439.106-2.14s.1-1.322.167-1.886.139-1.045.222-1.453a2.153 2.153 0 0 1 .311-.848 1.975 1.975 0 0 1 .9-.736 2.626 2.626 0 0 1 1.094-.219 1.72 1.72 0 0 1 1.128.473 1.322 1.322 0 0 1 .365 1.267c-.005.162-.007.381 0 .65s.009.586.021.937.022.716.034 1.1.031.769.065 1.147l.14 2.88a20.18 20.18 0 0 1 1.088-2.34 16.478 16.478 0 0 1 1.522-2.318 11.51 11.51 0 0 1 1.945-1.948 8.3 8.3 0 0 1 2.398-1.319 2.627 2.627 0 0 1 1.161-.112 3.11 3.11 0 0 1 .972.287 2.148 2.148 0 0 1 .668.5.826.826 0 0 1 .248.544 1.328 1.328 0 0 1-.1.376c-.057.15-.123.327-.211.573-.151.352-.312.778-.476 1.264s-.316.985-.449 1.487a14.611 14.611 0 0 0-.309 1.446 3.37 3.37 0 0 0-.021 1.137l.249.869c.04.18.087.356.139.525a1.381 1.381 0 0 1 .075.411.561.561 0 0 1-.506.585 4.061 4.061 0 0 1-1.687-.309 2.416 2.416 0 0 1-1.476-1.475 6.016 6.016 0 0 1-.423-2.507 8.485 8.485 0 0 1 .178-1.483 11.75 11.75 0 0 0-1.7 1.831 19.057 19.057 0 0 0-1.39 2.139c-.4.727-.767 1.456-1.079 2.165s-.573 1.365-.775 1.948v.116a11.266 11.266 0 0 1-.113 1.324 1.93 1.93 0 0 1-.237.761 1.855 1.855 0 0 1-.834.784 2.492 2.492 0 0 1-1.164.231 2.3 2.3 0 0 1-1.147-.339 1.942 1.942 0 0 1-.776-.988 4.693 4.693 0 0 1-.209-1.084c0-.031-.007-.063-.01-.1a2.72 2.72 0 0 1-.072.143 15.05 15.05 0 0 1-1.616 2.54 7.568 7.568 0 0 1-1.959 1.77 3.762 3.762 0 0 1-1.975.571zm-3.5-11.075l-.011.1a43.353 43.353 0 0 0-.2 3.027 23.921 23.921 0 0 0 .078 2.917 10.16 10.16 0 0 0 .507 2.467 4.537 4.537 0 0 0 1.067 1.739 2.771 2.771 0 0 0 1.752.766 3.69 3.69 0 0 0 2.265-.547 7.566 7.566 0 0 0 1.948-1.76 15.049 15.049 0 0 0 1.612-2.532l.075-.15.063-.125.007.073c.006.057.011.113.018.169a4.616 4.616 0 0 0 .207 1.073 1.9 1.9 0 0 0 .759.967 2.26 2.26 0 0 0 1.125.332 2.482 2.482 0 0 0 1.146-.227 1.815 1.815 0 0 0 .816-.767 1.928 1.928 0 0 0 .231-.744 10.65 10.65 0 0 0 .113-1.318l.005-.125c.2-.586.465-1.245.778-1.955s.676-1.441 1.08-2.169a18.977 18.977 0 0 1 1.4-2.144 11.877 11.877 0 0 1 1.752-1.88l.049-.042-.014.063a8.276 8.276 0 0 0-.19 1.537 5.967 5.967 0 0 0 .42 2.49 2.374 2.374 0 0 0 1.451 1.45 4.012 4.012 0 0 0 1.665.307.517.517 0 0 0 .471-.544 1.321 1.321 0 0 0-.073-.4c-.053-.17-.1-.347-.139-.527l-.249-.871a3.4 3.4 0 0 1 .02-1.154 14.821 14.821 0 0 1 .309-1.45c.132-.5.284-1 .449-1.49s.327-.913.478-1.265c.087-.246.152-.423.209-.573a1.322 1.322 0 0 0 .1-.362.79.79 0 0 0-.238-.514 2.114 2.114 0 0 0-.656-.493 3.088 3.088 0 0 0-.958-.283 2.6 2.6 0 0 0-1.142.11 8.282 8.282 0 0 0-2.419 1.314 11.487 11.487 0 0 0-1.939 1.941 16.7 16.7 0 0 0-1.518 2.313 20.013 20.013 0 0 0-1.123 2.43l-.037.1-.149-3.084c-.034-.378-.058-.765-.067-1.148s-.021-.754-.033-1.1-.019-.667-.021-.939 0-.491 0-.656a1.289 1.289 0 0 0-.351-1.231 1.679 1.679 0 0 0-1.1-.463 2.583 2.583 0 0 0-1.076.215 1.939 1.939 0 0 0-.884.721 2.123 2.123 0 0 0-.3.831c-.083.407-.158.894-.222 1.449s-.121 1.2-.166 1.883-.082 1.42-.106 2.139l-.006.163-.15.375c-.279.688-.579 1.411-.889 2.144s-.65 1.5-1 2.23-.688 1.423-1 2.022a13.169 13.169 0 0 1-.9 1.491 1.577 1.577 0 0 1-.747.668h-.008c-.309-.031-.533-.369-.664-1.005a10.877 10.877 0 0 1-.144-2.465c.021-.656.069-1.375.14-2.14s.169-1.57.287-2.373.24-1.629.359-2.458.251-1.634.392-2.4a104.936 104.936 0 0 0 .715-4.797.932.932 0 0 0-.411-.9 2.318 2.318 0 0 0-1.126-.287 3.211 3.211 0 0 0-.815.076 4.659 4.659 0 0 0-.734.227 1.436 1.436 0 0 0-.525.35.655.655 0 0 0-.2.411v.06a.077.077 0 0 1-.027.06s-.011.011-.012.059v.005c-.051.156-.111.384-.178.676s-.14.638-.227 1.064c-.252.589-.583 1.26-.989 2s-.852 1.5-1.329 2.264-.961 1.51-1.465 2.243-.976 1.389-1.422 1.978a17.94 17.94 0 0 1-1.2 1.435 2.2 2.2 0 0 1-.743.607h-.008c-.335-.031-.5-.365-.474-.989a8.45 8.45 0 0 1 .245-1.6c.147-.627.328-1.313.538-2.037.264-.9.516-1.812.75-2.728a12.371 12.371 0 0 0 .4-2.646 5.253 5.253 0 0 0-.221-1.726 1.069 1.069 0 0 0-.759-.86 4.126 4.126 0 0 0-1.477-.331 3.175 3.175 0 0 0-1.494.26.6.6 0 0 0-.346.346.663.663 0 0 0 .11.514h.07l.006.011a3.576 3.576 0 0 1 .294 1.687 11.445 11.445 0 0 1-.3 2.122 45.758 45.758 0 0 1-.619 2.407c-.219.9-.43 1.78-.625 2.6a12.6 12.6 0 0 0-.309 1.883v.008a19.935 19.935 0 0 1-1.03 1.777c-.405.615-.778.941-1.109.97-.148.016-.276-.107-.375-.367a4.626 4.626 0 0 1-.227-1.054 14.2 14.2 0 0 1-.086-1.627c0-.63.01-1.331.034-2.083.049-1.486.166-3.139.348-4.916l.547-5.324.4-4.589 1.761-.093q3.063-.106 5.883-.207a73.123 73.123 0 0 1 4.9-.031c.483.016.951.046 1.389.091s.831.093 1.178.143a1.623 1.623 0 0 0 .928-.042.754.754 0 0 0 .436-.376.53.53 0 0 0-.052-.473 1.051 1.051 0 0 0-.548-.411 10.159 10.159 0 0 0-2.245-.252 76.79 76.79 0 0 0-4.275-.008c-.87.023-1.754.044-2.627.061-.924.019-1.854.044-2.766.072-.6.019-1.232.033-1.878.042-.611.008-1.254.023-1.915.041h-.024v-.024c.035-.38.06-.739.071-1.068l.031-.951a13.1 13.1 0 0 0-.04-1.932 1.13 1.13 0 0 0-.487-.8 1.806 1.806 0 0 0-.857-.234 2.4 2.4 0 0 0-.7.08 2.559 2.559 0 0 0-.616.245 2.362 2.362 0 0 0-.445.324.488.488 0 0 0-.18.306h-.015l.01.008a.551.551 0 0 0-.033.1c-.026.088-.053.2-.082.337l-.684 3.656h-.192c-1.668 0-3.211-.023-4.589-.068a57.042 57.042 0 0 1-2.345-.122 9.814 9.814 0 0 1-1.681-.25 3.885 3.885 0 0 0-1.674-.056c-.351.1-.533.271-.542.5-.006.21.147.434.456.667a3.371 3.371 0 0 0 1.365.532v.015a8.621 8.621 0 0 0 1.487.212c.6.039 1.272.072 2.012.1 1.613.053 3.439.054 5.428 0h.026v.026c-.238 1.555-.478 3.29-.715 5.155s-.384 3.731-.445 5.52a38.392 38.392 0 0 0 .046 3.607v.01c-.143.271-.29.554-.437.842q-.7 1.316-1.483 2.778c-.513.963-1.005 1.879-1.464 2.72a129.02 129.02 0 0 1-1.165 2.1 5.738 5.738 0 0 1-.592.939l-.007.005h-.008a.612.612 0 0 1-.577-.525 4.65 4.65 0 0 1-.113-1.365 18.541 18.541 0 0 1 .313-2.627c.184-1.015.414-2.1.682-3.238.275-1.352.55-2.75.815-4.154a25.979 25.979 0 0 0 .46-3.925 10.668 10.668 0 0 0-.107-2.008 4.672 4.672 0 0 0-.519-1.573 2.888 2.888 0 0 0-1.017-1.053 3.328 3.328 0 0 0-3.9.479 11.987 11.987 0 0 0-2.126 2.4 23.933 23.933 0 0 0-1.842 3.195 48.083 48.083 0 0 0-1.448 3.3l-.053.136.306-3.767a.979.979 0 0 1 .045-.272.734.734 0 0 0 .039-.171.606.606 0 0 0-.449-.724 3.909 3.909 0 0 0-1.271-.234 6.011 6.011 0 0 0-1.077.053 3.41 3.41 0 0 0-.783.2c-.193.08-.309.162-.344.245a.075.075 0 0 0 0 .064c.015.03.063.072.206.107l.024.007-.011.023a7.441 7.441 0 0 0-.387 1.2c-.132.528-.259 1.15-.374 1.846-.083.5-.159 1.037-.226 1.586v.005c-.286.721-.592 1.476-.909 2.243s-.66 1.586-1 2.393-.679 1.525-1.011 2.155a12.417 12.417 0 0 1-.94 1.55c-.294.4-.551.619-.766.653h-.049c-.358 0-.584-.3-.678-.891a12.93 12.93 0 0 1-.1-2.344c.021-.615.06-1.279.117-1.977.06-.725.125-1.458.193-2.181.092-.739.177-1.5.249-2.254s.118-1.458.14-2.107c.013-.369.018-.722.018-1.056a4.357 4.357 0 0 0-.091-.906 1.231 1.231 0 0 0-.6-.869 2.283 2.283 0 0 0-1.075-.3 3.116 3.116 0 0 0-1.46.291c-.437.21-.664.46-.673.747v.01l-.008.007c-.011.008-.029.037-.031.132-.029.178-.093.5-.188.95s-.2 1-.3 1.641a48.42 48.42 0 0 0-.336 2.692v.008c-.137.28-.28.562-.425.837a27.437 27.437 0 0 1-1.675 2.759 15.825 15.825 0 0 1-2.191 2.565 11.132 11.132 0 0 1-2.728 1.893 7.482 7.482 0 0 1-3.32.741 4.434 4.434 0 0 1-.766-.026 5.85 5.85 0 0 1-1.369-.314 6.215 6.215 0 0 1-1.629-.89 5.928 5.928 0 0 1-1.529-1.752 10.075 10.075 0 0 1-1.088-2.9 17.049 17.049 0 0 1-.326-4.332 24.896 24.896 0 0 1 .13-1.843c.03-.219.079-.648.147-1.275s.174-1.4.32-2.283.334-1.869.566-2.929.506-2.141.82-3.233a29.467 29.467 0 0 1 1.114-3.18 14.356 14.356 0 0 1 1.483-2.737 8.506 8.506 0 0 1 1.86-1.952 4.02 4.02 0 0 1 2.281-.807l.644.022a3.9 3.9 0 0 1 .956.166 4.535 4.535 0 0 1 1.067.484 3.576 3.576 0 0 1 1 .947 4.857 4.857 0 0 1 .717 1.533 7.408 7.408 0 0 1 .222 2.261 2.356 2.356 0 0 1-.048.374 2.747 2.747 0 0 0-.047.4 13.234 13.234 0 0 1-1.219 4.732 2.586 2.586 0 0 1-2.176 1.607 5.318 5.318 0 0 1-2.654-1.044c-.6-.431-1.037-.62-1.286-.561a.462.462 0 0 0-.382.487 1.083 1.083 0 0 0 .123.456 2.694 2.694 0 0 0 .26.467 5 5 0 0 0 1.833 1.035 8.156 8.156 0 0 0 1.963.422 7.343 7.343 0 0 0 1.023.019 6.124 6.124 0 0 0 1.411-.235 6.618 6.618 0 0 0 1.565-.675 5.546 5.546 0 0 0 1.48-1.3 8.042 8.042 0 0 0 1.2-2.128 11.382 11.382 0 0 0 .676-3.156c.008-.256 0-.626-.017-1.1a6 6 0 0 0-.278-1.521 7.208 7.208 0 0 0-.795-1.673 6.013 6.013 0 0 0-1.49-1.577 8.306 8.306 0 0 0-2.388-1.192 12.554 12.554 0 0 0-3.487-.547 10.308 10.308 0 0 0-4.2.663 10.671 10.671 0 0 0-3.242 2.016 13.32 13.32 0 0 0-2.407 2.951 23.107 23.107 0 0 0-1.711 3.452 26.927 26.927 0 0 0-1.124 3.517 37.906 37.906 0 0 0-.944 5.532c-.051.63-.085 1.016-.09 1.156a20.529 20.529 0 0 0 .563 6.054 13.1 13.1 0 0 0 1.81 4.057 9.013 9.013 0 0 0 2.52 2.473 11.206 11.206 0 0 0 2.733 1.279 10.989 10.989 0 0 0 2.414.467c.712.044 1.238.06 1.561.052a12.776 12.776 0 0 0 4.937-1.352 15.019 15.019 0 0 0 3.664-2.672 18.061 18.061 0 0 0 1.936-2.3l.033-.046.011.094c0 .022 0 .044.007.064a9.079 9.079 0 0 0 .63 2.441 5.339 5.339 0 0 0 1.254 1.835 3.506 3.506 0 0 0 1.992.894 4.209 4.209 0 0 0 2.513-.732 9.8 9.8 0 0 0 2.166-2.007c.268-.331.533-.691.788-1.073l.031-.048.008.056.023.163a5.02 5.02 0 0 0 .339 1.256 1.193 1.193 0 0 0 .592.664 3.812 3.812 0 0 0 .718.231 3.953 3.953 0 0 0 .655.08 2.183 2.183 0 0 0 1.706-.547 1.123 1.123 0 0 0 .215-1.352.972.972 0 0 1-.1-.336 10.78 10.78 0 0 1-.053-.509v-.005a21.4 21.4 0 0 1 .762-2.522c.343-.947.738-1.931 1.175-2.924s.9-1.977 1.385-2.947.962-1.83 1.425-2.574a14.407 14.407 0 0 1 1.277-1.79c.394-.453.7-.66.944-.631.217.029.369.188.455.476a3.718 3.718 0 0 1 .1 1.141 14.2 14.2 0 0 1-.3 2.271c-.181.9-.383 1.85-.6 2.823l-.018.087q-.363 1.763-.749 3.623a21.107 21.107 0 0 0-.447 3.567 9.821 9.821 0 0 0 .11 1.92 5.111 5.111 0 0 0 .5 1.558 3.113 3.113 0 0 0 .981 1.112 3.463 3.463 0 0 0 1.554.554 4.851 4.851 0 0 0 2.272-.132 4.228 4.228 0 0 0 1.753-1.275 13.888 13.888 0 0 0 1.7-2.6c.377-.716.808-1.559 1.283-2.51l.023-.045.018.048a5.667 5.667 0 0 0 1.03 1.822 2.663 2.663 0 0 0 1.918.92 4.35 4.35 0 0 0 2.158-.4 6.126 6.126 0 0 0 1.315-.85l.021-.018.012.023a3.367 3.367 0 0 0 .258.4 3.505 3.505 0 0 0 2.694 1.124 3.579 3.579 0 0 0 1.868-.649 9.888 9.888 0 0 0 1.822-1.588 18.087 18.087 0 0 0 1.668-2.144c.522-.784 1-1.554 1.414-2.288zm-14.808-20.122a.021.021 0 0 0 .015.016v-.015zm0 0z" class="cls-6" data-name="Path 6998" transform="translate(-3123.9 -176.294)"></path>
											</g>
											<g id="Group_6800" data-name="Group 6800" transform="translate(136.613 17.096)">
												<path id="Path_6999" d="M3821.765 301.166a2.118 2.118 0 0 0-.688-.231 2.685 2.685 0 0 0-.8-.026.6.6 0 0 0-.5.252l-.38.97c-.2.45-.445 1.018-.735 1.7s-.6 1.408-.941 2.171-.688 1.525-1.049 2.287-.714 1.45-1.059 2.063a13.272 13.272 0 0 1-.971 1.516c-.3.4-.559.6-.767.615-.279.03-.471-.159-.573-.57a5.855 5.855 0 0 1-.122-1.566 19.406 19.406 0 0 1 .19-2.063q.159-1.141.34-2.385.217-1.3.381-2.562t.2-2.329a7.433 7.433 0 0 0-.085-1.61 1.033 1.033 0 0 0-.513-.805 2.142 2.142 0 0 0-.982-.256 3.428 3.428 0 0 0-.836.076 3.732 3.732 0 0 0-.755.242 2.688 2.688 0 0 0-.567.339.732.732 0 0 0-.272.333c-.024.019-.037.068-.039.147-.053.2-.121.517-.206.961s-.171.971-.261 1.584-.17 1.279-.239 2-.119 1.46-.143 2.212q-.3.5-.663 1.094a9.92 9.92 0 0 1-.784 1.1 4.948 4.948 0 0 1-.88.849 1.425 1.425 0 0 1-.88.328c-.139 0-.347-.022-.625-.05a1.366 1.366 0 0 1-.819-.458 3.3 3.3 0 0 1-.686-1.332 8.626 8.626 0 0 1-.225-2.671q0-.149.033-.445c.018-.2.03-.356.033-.475a16.839 16.839 0 0 1 .667-3.326 13.472 13.472 0 0 1 1.038-2.48 5.881 5.881 0 0 1 1.2-1.567 1.915 1.915 0 0 1 1.148-.558 1.661 1.661 0 0 1 1.29.43 3.558 3.558 0 0 1 .548.762.271.271 0 0 1 .064.151c0 .039.055.1.167.184a1.793 1.793 0 0 0 .646.423 2.218 2.218 0 0 0 .725.158 1.582 1.582 0 0 0 .965-.235c.249-.17.286-.427.113-.77v.03l-.094-.3a3.474 3.474 0 0 0-.325-.7 2.661 2.661 0 0 0-.739-.769 4.642 4.642 0 0 0-1.386-.641 8.3 8.3 0 0 0-2.268-.283 7.973 7.973 0 0 0-3.042.539 7.164 7.164 0 0 0-2.219 1.4 7.606 7.606 0 0 0-1.49 1.929 13.167 13.167 0 0 0-.922 2.128 10.578 10.578 0 0 0-.465 1.993q-.119.933-.138 1.528.007.892.138 2.132a6 6 0 0 0 .774 2.362 5.286 5.286 0 0 0 1.988 1.912 7.2 7.2 0 0 0 3.747.75 4.165 4.165 0 0 0 2.11-.718 5.487 5.487 0 0 0 1.367-1.369 8.994 8.994 0 0 0 .377 1.754 6.626 6.626 0 0 0 .664 1.465 4.057 4.057 0 0 0 .955 1.073 2.783 2.783 0 0 0 1.321.55 3.726 3.726 0 0 0 2.192-.567 8.137 8.137 0 0 0 1.951-1.691 14.24 14.24 0 0 0 1.644-2.4q.741-1.345 1.34-2.679t1.023-2.525q.423-1.192.657-1.988l.3-.823v.06c.072-.113.018-.223-.163-.329z" class="cls-6" data-name="Path 6999" transform="translate(-3799.353 -294.666)"></path>
												<path id="Path_7000" d="M3812.86 313.987c-.072 0-.144 0-.217-.007a2.81 2.81 0 0 1-1.332-.554 4.124 4.124 0 0 1-.961-1.079 6.694 6.694 0 0 1-.666-1.471 9.037 9.037 0 0 1-.37-1.7 5.536 5.536 0 0 1-1.34 1.327 4.191 4.191 0 0 1-2.121.722 7.288 7.288 0 0 1-3.76-.752 5.325 5.325 0 0 1-2-1.918 6.087 6.087 0 0 1-.777-2.37 21.644 21.644 0 0 1-.139-2.135c.014-.392.06-.908.137-1.531a10.771 10.771 0 0 1 .467-2 13.144 13.144 0 0 1 .924-2.131 7.655 7.655 0 0 1 1.494-1.936 7.268 7.268 0 0 1 2.226-1.4 8.049 8.049 0 0 1 3.052-.541 8.411 8.411 0 0 1 2.275.284 4.644 4.644 0 0 1 1.393.645 2.685 2.685 0 0 1 .746.775 3.674 3.674 0 0 1 .326.7l.068.216.026.052c.178.352.139.622-.12.8a1.6 1.6 0 0 1-.977.239 2.252 2.252 0 0 1-.731-.159 1.819 1.819 0 0 1-.655-.429c-.12-.087-.175-.151-.174-.2a.248.248 0 0 0-.06-.137 3.525 3.525 0 0 0-.547-.76 1.655 1.655 0 0 0-1.273-.423 1.9 1.9 0 0 0-1.135.552 5.864 5.864 0 0 0-1.195 1.562 13.588 13.588 0 0 0-1.037 2.476 16.9 16.9 0 0 0-.665 3.322c0 .114-.015.269-.034.475a9.41 9.41 0 0 0-.033.444 8.667 8.667 0 0 0 .223 2.664 3.318 3.318 0 0 0 .681 1.324 1.343 1.343 0 0 0 .805.452c.272.029.481.046.623.05a1.425 1.425 0 0 0 .867-.324 4.95 4.95 0 0 0 .876-.845 10 10 0 0 0 .782-1.1c.247-.4.468-.766.66-1.09.024-.754.073-1.5.143-2.208s.151-1.391.241-2 .178-1.147.261-1.585c.087-.454.154-.769.206-.962a.232.232 0 0 1 .041-.154.758.758 0 0 1 .278-.339 2.744 2.744 0 0 1 .571-.342 3.761 3.761 0 0 1 .761-.245 3.481 3.481 0 0 1 .842-.078 2.161 2.161 0 0 1 .992.258 1.056 1.056 0 0 1 .523.822 7.4 7.4 0 0 1 .085 1.614c-.023.709-.089 1.494-.2 2.332s-.237 1.7-.381 2.563a547.12 547.12 0 0 0-.34 2.384 19.587 19.587 0 0 0-.19 2.06 5.877 5.877 0 0 0 .121 1.561c.1.4.281.584.548.554.2-.012.456-.216.754-.607a13.152 13.152 0 0 0 .97-1.513c.343-.609.7-1.3 1.059-2.063a112.76 112.76 0 0 0 1.99-4.457 76.71 76.71 0 0 1 .735-1.7l.379-.969a.63.63 0 0 1 .513-.265 2.734 2.734 0 0 1 .805.027 2.135 2.135 0 0 1 .7.234.379.379 0 0 1 .2.211.189.189 0 0 1-.029.152l-.042.067v-.007l-.26.7c-.155.524-.375 1.193-.657 1.986s-.624 1.642-1.023 2.528-.851 1.79-1.342 2.68a14.391 14.391 0 0 1-1.646 2.4 8.221 8.221 0 0 1-1.957 1.7 3.728 3.728 0 0 1-1.983.572zm-3.517-4.931l.007.057a9.031 9.031 0 0 0 .375 1.75 6.68 6.68 0 0 0 .663 1.461 4.084 4.084 0 0 0 .95 1.068 2.769 2.769 0 0 0 1.311.546 3.711 3.711 0 0 0 2.177-.565 8.177 8.177 0 0 0 1.946-1.687 14.22 14.22 0 0 0 1.64-2.4c.49-.89.94-1.79 1.34-2.678s.742-1.733 1.021-2.524.5-1.461.658-1.986l.329-.89a.349.349 0 0 0-.18-.182 2.111 2.111 0 0 0-.68-.229 2.7 2.7 0 0 0-.793-.026.587.587 0 0 0-.479.241l-.378.967c-.2.448-.446 1.02-.735 1.7s-.606 1.416-.941 2.171-.686 1.52-1.049 2.287-.717 1.453-1.06 2.064a13.381 13.381 0 0 1-.973 1.518c-.31.405-.566.61-.783.623-.29.033-.49-.166-.595-.586a5.9 5.9 0 0 1-.123-1.573 19.68 19.68 0 0 1 .19-2.065c.111-.8.226-1.6.34-2.385.144-.861.272-1.724.381-2.562s.176-1.619.2-2.328a7.406 7.406 0 0 0-.086-1.605 1.017 1.017 0 0 0-.5-.79 2.118 2.118 0 0 0-.973-.253 3.4 3.4 0 0 0-.832.076 3.785 3.785 0 0 0-.751.241 2.655 2.655 0 0 0-.563.336.708.708 0 0 0-.264.322v.007h-.005c-.011.008-.028.037-.031.132-.053.2-.12.51-.206.963a41.341 41.341 0 0 0-.5 3.582 36.075 36.075 0 0 0-.143 2.211v.011c-.193.324-.415.693-.663 1.094a10.087 10.087 0 0 1-.785 1.107 5.045 5.045 0 0 1-.884.853 1.443 1.443 0 0 1-.894.332c-.141 0-.353-.022-.626-.05a1.385 1.385 0 0 1-.832-.465 3.325 3.325 0 0 1-.691-1.341 8.706 8.706 0 0 1-.226-2.678c0-.1.015-.26.033-.446.019-.2.03-.359.034-.473a17.066 17.066 0 0 1 .667-3.332 13.679 13.679 0 0 1 1.04-2.484 5.884 5.884 0 0 1 1.2-1.573 1.931 1.931 0 0 1 1.162-.562 1.69 1.69 0 0 1 1.306.437 3.591 3.591 0 0 1 .552.767.274.274 0 0 1 .067.161c0 .015.014.06.159.166a1.8 1.8 0 0 0 .642.42 2.172 2.172 0 0 0 .719.156 1.55 1.55 0 0 0 .951-.233.482.482 0 0 0 .143-.661v.067l-.132-.422a3.533 3.533 0 0 0-.323-.691 2.657 2.657 0 0 0-.733-.762 4.652 4.652 0 0 0-1.381-.638 8.363 8.363 0 0 0-2.263-.283 7.978 7.978 0 0 0-3.034.537 7.192 7.192 0 0 0-2.213 1.4 7.593 7.593 0 0 0-1.486 1.925 13.242 13.242 0 0 0-.921 2.124 10.806 10.806 0 0 0-.465 1.989 17.26 17.26 0 0 0-.138 1.526c0 .592.051 1.309.138 2.129a6.027 6.027 0 0 0 .771 2.354 5.28 5.28 0 0 0 1.981 1.9 7.2 7.2 0 0 0 3.736.746 4.163 4.163 0 0 0 2.1-.714 5.487 5.487 0 0 0 1.362-1.363z" class="cls-6" data-name="Path 7000" transform="translate(-3799.18 -294.51)"></path>
											</g>
										</g>
										<g id="Group_6847" data-name="Group 6847">
											<g id="Group_6845" data-name="Group 6845">
												<path id="Path_7047" d="M2380.344 162.491c-.212-3.748-3.006-12.12-4.279-13a6.048 6.048 0 0 0-3.75-2.188 3.937 3.937 0 0 0-1.234.148 30.071 30.071 0 0 0-16.258-5.451 25.463 25.463 0 1 0 0 50.92c11.609 0 21.926-8.76 25.182-19.148a3.954 3.954 0 0 0 .667-1.229 4.8 4.8 0 0 0 .247-1.528v-6.262a4.6 4.6 0 0 0-.575-2.262zm-1.958-4.833l.312 1.415-4.147.42-.393-1.39zm-3.34-3.374a.845.845 0 1 1-.351.954.735.735 0 0 1 .351-.954zm-1.4-3.011a.846.846 0 1 1-.308.97.735.735 0 0 1 .306-.97zm-1.739 32.312a.637.637 0 1 1 .087-1.014.735.735 0 0 1-.094 1.015zm2.114-2.691a.637.637 0 1 1-.124-1.01.732.732 0 0 1 .122 1.011zm1.97-2.841a.637.637 0 1 1-.245-.986.735.735 0 0 1 .243.987zm2-2.633c-.222 0-.948.026-1.29-.008a4.729 4.729 0 0 1-1.143-.252 4.313 4.313 0 0 1-1.718-1.592c-.722 3.033-5.235 10.056-6.979 10.832-.06.027-.958 1.2-1.706 2.132a8.018 8.018 0 0 1-1.012 1.079l.529-.9c.231-.395.428-.748.32-.682-.935.569-1.563 1.288-1.949 1.434-4.031 1.512-6.8 1.461-11.888 1.321-1.814-.546-4.482-.737-6.652-1.657-.2-.084-3.357-1.208-3.546-1.3-.391-.2 2.084.424 1.76.18a34.569 34.569 0 0 1-6.417-6.639 48.138 48.138 0 0 1-2.594-5.818l-2.008-4.978 1.421 1.962a24.742 24.742 0 0 1 1.837-12.413c1.182-2.8 3.359-4.45 5.243-6.932a13.378 13.378 0 0 1 2.352-2.95 12.772 12.772 0 0 0-1.195 2.061c2.891-1.463 5.8-3.084 8.981-3.656a25.834 25.834 0 0 1 9.983.6c.4.1 4.793.381 5.192.5.328.1-2.223.337-1.9.452a16.4 16.4 0 0 1 6.12 4.189c-.1-.6-.171-.95-.214-1.4a12.408 12.408 0 0 1-.053-1.678 2.758 2.758 0 0 1 .356-1.426 2.263 2.263 0 0 1 .85-.267.627.627 0 0 0-.3.271 3.752 3.752 0 0 0-.428 2.2 7.316 7.316 0 0 0 .706 3.256c.625 1.11.347.729.938 1.805a13.368 13.368 0 0 1 1.115 2.469 38.315 38.315 0 0 1 1.007 4.737 4.216 4.216 0 0 1 2.106-1.775 14.648 14.648 0 0 1 2.883-.064 1.289 1.289 0 0 1 .7.419c.032.034.063.071.093.107a4.846 4.846 0 0 1 .6 1.071 2.83 2.83 0 0 0-.586-.656 2.666 2.666 0 0 0-1.439-.471h-1.514c-1.566 0-2.848 1.7-2.848 3.767v6.262c.158 1.927 1.375 3.68 2.848 3.767h1.514a2.261 2.261 0 0 0 1.206-.356c-.372.711-.649.933-1.282.998zm2.461-5.4a4.621 4.621 0 0 1-.51 2.143 3.672 3.672 0 0 1-1.992 1.181 45.218 45.218 0 0 1-.4-4.911c-.052-.631-.261-.754-.381-.634-.1.1-.1.332-.158.653-.014.072-.156 4.9-.214 4.9a2.664 2.664 0 0 1-1.564-.445 4.4 4.4 0 0 1-1.015-2.883v-4.035c0-2.131 1.367-3.875 3.04-3.875h.157a3.422 3.422 0 0 1 2.17 1.17 4.461 4.461 0 0 1 .868 2.7z" class="cls-8" data-name="Path 7047" transform="translate(-2328.99 -142)"></path>
											</g>
											<g id="Group_6846" data-name="Group 6846" transform="translate(46.018 21.205)">
												<path id="Path_7048" d="M2669.548 297.86c-1.275 0-2.318 1.452-2.318 3.226v3.386a3.808 3.808 0 0 0 .8 2.435c.181.223.075.2.472.2 0 0 .206-4.506.225-4.571a.86.86 0 0 1 .4-.6 1.225 1.225 0 0 1 .725-.031c.394.186.395.9.407 1 .024.205.3 4.171.372 4.194.15.05.306 0 .437-.205a6.365 6.365 0 0 0 .461-.861 3.887 3.887 0 0 0 .34-1.573v-3.386a4.222 4.222 0 0 0-.28-1.532 2.356 2.356 0 0 0-2.041-1.682z" class="cls-8" data-name="Path 7048" transform="translate(-2667.23 -297.86)"></path>
											</g>
										</g>
									</g>
									<g id="Group_6848" data-name="Group 6848" transform="translate(-2614.742 -3769.721)">
										<circle id="Ellipse_2703" cx="2.171" cy="2.171" r="2.171" class="cls-8" data-name="Ellipse 2703"></circle>
									</g>
								</g>
							</svg>