<svg xmlns="http://www.w3.org/2000/svg" width="35.054" height="35.054" viewBox="0 0 35.054 35.054">
								<defs>
									<style>
									.footer-first-col .cls-1{fill:#7d7d7d}
									</style>
								</defs>
								<g id="instagram_1_" data-name="instagram (1)">
									<g id="Group_4" data-name="Group 4">
										<g id="Group_3" data-name="Group 3">
											<path id="Path_2" d="M24.1 0H10.954A10.956 10.956 0 0 0 0 10.954V24.1a10.956 10.956 0 0 0 10.954 10.954H24.1A10.956 10.956 0 0 0 35.054 24.1V10.954A10.956 10.956 0 0 0 24.1 0zm7.668 24.1a7.676 7.676 0 0 1-7.668 7.668H10.954A7.676 7.676 0 0 1 3.286 24.1V10.954a7.676 7.676 0 0 1 7.668-7.668H24.1a7.676 7.676 0 0 1 7.668 7.668z" class="cls-1" data-name="Path 2"></path>
										</g>
									</g>
									<g id="Group_6" data-name="Group 6" transform="translate(8.764 8.764)">
										<g id="Group_5" data-name="Group 5">
											<path id="Path_3" d="M136.764 128a8.764 8.764 0 1 0 8.764 8.764 8.764 8.764 0 0 0-8.764-8.764zm0 14.241a5.477 5.477 0 1 1 5.477-5.477 5.485 5.485 0 0 1-5.477 5.477z" class="cls-1" data-name="Path 3" transform="translate(-128 -128)"></path>
										</g>
									</g>
									<g id="Group_8" data-name="Group 8" transform="translate(25.78 6.939)">
										<g id="Group_7" data-name="Group 7">
											<circle id="Ellipse_1" cx="1.168" cy="1.168" r="1.168" class="cls-1" data-name="Ellipse 1"></circle>
										</g>
									</g>
								</g>
							</svg>