<svg xmlns="http://www.w3.org/2000/svg" width="21.089" height="21.119" viewBox="0 0 21.089 21.119">
						<defs>
							<style>
								.contact-footer .cls-1{fill:#c5c8d1}
							</style>
						</defs>
						<g id="phone-call_1_" data-name="phone-call (1)" transform="translate(-.344)">
							<g id="Group_107" data-name="Group 107" transform="translate(.344)">
								<path id="Path_73" d="M17.02 39.267a2.077 2.077 0 0 0-1.507-.691 2.148 2.148 0 0 0-1.524.686l-1.409 1.4c-.116-.062-.232-.12-.343-.178a5.695 5.695 0 0 1-.441-.236 15.309 15.309 0 0 1-3.668-3.343 9.031 9.031 0 0 1-1.2-1.9c.366-.334.7-.682 1.034-1.016.125-.125.25-.254.374-.379a2.045 2.045 0 0 0 0-3.084l-1.22-1.212a20.694 20.694 0 0 1-.415-.423 20.521 20.521 0 0 0-.838-.829 2.11 2.11 0 0 0-1.493-.655 2.183 2.183 0 0 0-1.516.655l-.009.009L1.33 29.6a3.261 3.261 0 0 0-.967 2.073 7.814 7.814 0 0 0 .571 3.307 19.192 19.192 0 0 0 3.41 5.688 20.976 20.976 0 0 0 6.985 5.469 10.883 10.883 0 0 0 3.922 1.159c.094 0 .192.009.281.009A3.359 3.359 0 0 0 18.1 46.2c0-.009.013-.013.018-.022a10.133 10.133 0 0 1 .78-.807c.192-.183.388-.374.579-.575a2.224 2.224 0 0 0 .673-1.542 2.142 2.142 0 0 0-.686-1.529zm1.6 4.694c-.174.187-.352.357-.544.544a11.719 11.719 0 0 0-.86.891 2.149 2.149 0 0 1-1.676.709h-.205a9.668 9.668 0 0 1-3.477-1.043A19.8 19.8 0 0 1 5.275 39.9a18.1 18.1 0 0 1-3.209-5.34 6.364 6.364 0 0 1-.5-2.79 2.046 2.046 0 0 1 .615-1.324l1.52-1.52a1.013 1.013 0 0 1 .678-.316.953.953 0 0 1 .651.312l.013.013c.272.254.53.517.8.8.138.143.281.285.423.432l1.217 1.217a.851.851 0 0 1 0 1.382c-.129.129-.254.259-.383.383-.374.383-.731.74-1.119 1.088-.009.009-.018.013-.022.022a.909.909 0 0 0-.232 1.012l.013.04a9.769 9.769 0 0 0 1.44 2.349 16.36 16.36 0 0 0 3.958 3.6 6.087 6.087 0 0 0 .548.3c.16.08.312.156.441.236.018.009.036.022.053.031a.966.966 0 0 0 .441.111.953.953 0 0 0 .678-.308l1.524-1.524a1.008 1.008 0 0 1 .673-.334.908.908 0 0 1 .642.325l.009.009 2.456 2.456a.881.881 0 0 1 .013 1.399z" class="cls-1" data-name="Path 73" transform="translate(-.344 -26.184)"></path>
								<path id="Path_74" d="M245.439 87.119a5.737 5.737 0 0 1 4.671 4.671.6.6 0 0 0 .593.5.8.8 0 0 0 .1-.009.6.6 0 0 0 .495-.7 6.936 6.936 0 0 0-5.652-5.652.6.6 0 0 0-.7.49.6.6 0 0 0 .493.7z" class="cls-1" data-name="Path 74" transform="translate(-234.041 -82.095)"></path>
								<path id="Path_75" d="M258.781 9.316a11.422 11.422 0 0 0-9.307-9.307.6.6 0 1 0-.2 1.186 10.2 10.2 0 0 1 8.326 8.317.6.6 0 0 0 .593.5.8.8 0 0 0 .1-.009.591.591 0 0 0 .488-.687z" class="cls-1" data-name="Path 75" transform="translate(-237.702)"></path>
							</g>
						</g>
					</svg>