<svg xmlns="http://www.w3.org/2000/svg" id="telephone_1_" width="15.799" height="15.8" data-name="telephone (1)" viewBox="0 0 15.799 15.8">
                                <defs>
                                    <style>
                                        .call-now .cls-1{fill:#fff}
                                    </style>
                                </defs>
                                <g id="Group_5748" data-name="Group 5748">
                                    <path id="Path_3265" d="M12.017 55.072a1.107 1.107 0 0 0-1.673 0c-.391.388-.782.776-1.167 1.17a.231.231 0 0 1-.322.059c-.253-.138-.523-.25-.766-.4a12.137 12.137 0 0 1-2.926-2.663 6.932 6.932 0 0 1-1.049-1.68.241.241 0 0 1 .059-.309c.391-.378.773-.766 1.157-1.154a1.111 1.111 0 0 0 0-1.713c-.306-.309-.612-.612-.917-.921s-.628-.635-.947-.947a1.114 1.114 0 0 0-1.673 0c-.395.388-.773.786-1.174 1.167a1.905 1.905 0 0 0-.6 1.285A5.446 5.446 0 0 0 .44 51.31a14.244 14.244 0 0 0 2.528 4.212 15.646 15.646 0 0 0 5.18 4.058 7.494 7.494 0 0 0 2.87.835 2.1 2.1 0 0 0 1.8-.687c.335-.375.713-.717 1.069-1.075a1.118 1.118 0 0 0 .007-1.7q-.933-.945-1.877-1.881z" class="cls-1" data-name="Path 3265" transform="translate(-.006 -44.621)"></path>
                                    <path id="Path_3266" d="M241.418 100.675l1.213-.207A5.446 5.446 0 0 0 238.025 96l-.171 1.22a4.209 4.209 0 0 1 3.564 3.455z" class="cls-1" data-name="Path 3266" transform="translate(-230.034 -92.844)"></path>
                                    <path id="Path_3267" d="M248.054 2.558A8.945 8.945 0 0 0 242.925 0l-.171 1.22a7.806 7.806 0 0 1 6.605 6.4l1.213-.207a9.011 9.011 0 0 0-2.518-4.855z" class="cls-1" data-name="Path 3267" transform="translate(-234.773)"></path>
                                </g>
                            </svg>