<svg xmlns="http://www.w3.org/2000/svg" width="17" height="14.311" viewBox="0 0 17 14.311">
                        <defs>
                            <style>
                                .cls-1{fill:#ec8709;stroke:#202020}
                            </style>
                        </defs>
                        <g id="Group_91" data-name="Group 91" transform="translate(.5 .5)">
                            <path id="Path_59" d="M15.744 47.38L9.966 41.6a.878.878 0 0 0-1.238 0l-.525.525a.869.869 0 0 0-.256.619.886.886 0 0 0 .256.626l3.371 3.378H.864a.855.855 0 0 0-.864.863v.742a.887.887 0 0 0 .864.9h10.748L8.2 52.649a.867.867 0 0 0 0 1.23l.525.523a.878.878 0 0 0 1.238 0l5.778-5.778a.883.883 0 0 0 0-1.243z" class="cls-1" data-name="Path 59" transform="translate(0 -41.346)"></path>
                        </g>
                    </svg>